<svg xmlns="http://www.w3.org/2000/svg" xmlns:xlink="http://www.w3.org/1999/xlink" width="500" zoomAndPan="magnify" viewBox="0 0 375 374.999991" height="500" preserveAspectRatio="xMidYMid meet" version="1.0"><defs><filter x="0%" y="0%" width="100%" height="100%" id="8d58cf3c2b"><feColorMatrix values="0 0 0 0 1 0 0 0 0 1 0 0 0 0 1 0 0 0 1 0" color-interpolation-filters="sRGB"/></filter><clipPath id="a0e075a61b"><path d="M 20.039062 4.75 L 212 4.75 L 212 370 L 20.039062 370 Z M 20.039062 4.75 " clip-rule="nonzero"/></clipPath><mask id="28968a37ed"><g filter="url(#8d58cf3c2b)"><rect x="-37.5" width="450" fill="#000000" y="-37.499999" height="449.999989" fill-opacity="0.3"/></g></mask><clipPath id="d174ea1794"><path d="M 0.0390625 0.800781 L 191.921875 0.800781 L 191.921875 366 L 0.0390625 366 Z M 0.0390625 0.800781 " clip-rule="nonzero"/></clipPath><clipPath id="18b4bfe7ce"><rect x="0" width="192" y="0" height="366"/></clipPath><mask id="bdc62d03ca"><g filter="url(#8d58cf3c2b)"><rect x="-37.5" width="450" fill="#000000" y="-37.499999" height="449.999989" fill-opacity="0.2"/></g></mask><clipPath id="53e37b5045"><path d="M 0.320312 1 L 171 1 L 171 331.441406 L 0.320312 331.441406 Z M 0.320312 1 " clip-rule="nonzero"/></clipPath><clipPath id="6f0e9df84d"><rect x="0" width="172" y="0" height="332"/></clipPath><clipPath id="999a4b51c8"><path d="M 20.039062 4.75 L 208 4.75 L 208 370 L 20.039062 370 Z M 20.039062 4.75 " clip-rule="nonzero"/></clipPath></defs><g clip-path="url(#a0e075a61b)"><g mask="url(#28968a37ed)"><g transform="matrix(1, 0, 0, 1, 20, 4)"><g clip-path="url(#18b4bfe7ce)"><g clip-path="url(#d174ea1794)"><path fill="#ff914d" d="M 168.515625 246.960938 C 170.472656 249.992188 172.171875 253.398438 173.589844 257.171875 C 179.136719 271.960938 178.53125 287.078125 178.351562 289.957031 C 177.78125 299.171875 175.582031 312.445312 168.332031 323.328125 C 167.589844 324.4375 166.8125 325.496094 166.003906 326.5 C 166.121094 326.746094 166.234375 327.003906 166.355469 327.28125 C 166.402344 327.386719 166.449219 327.5 166.492188 327.617188 C 167.289062 329.523438 168.269531 332.417969 168.699219 335.886719 C 169.476562 342.082031 168.839844 353.691406 155.867188 361.78125 C 150.625 365.050781 145.675781 366.195312 141.316406 366.195312 C 132.179688 366.195312 125.636719 361.160156 124.390625 360.125 C 123.03125 359.089844 115.582031 353.007812 112.363281 342.039062 C 110.347656 342.824219 108.242188 343.414062 106.066406 343.753906 C 104.074219 344.066406 102.113281 344.222656 100.191406 344.222656 C 91.914062 344.222656 84.328125 341.34375 78 335.75 C 71.230469 329.765625 66.1875 320.8125 63.621094 310.589844 C 62.734375 310.894531 61.777344 311.175781 60.746094 311.402344 C 59.167969 311.753906 57.324219 312.003906 55.300781 312.003906 C 50.617188 312.003906 44.929688 310.667969 39.03125 306.179688 C 28.277344 298 26.378906 287.042969 26.347656 280.441406 C 24.871094 279.976562 23.425781 279.363281 22.019531 278.605469 C 11.300781 272.777344 5.292969 259.855469 5.539062 243.140625 C 5.734375 229.949219 11.179688 218.113281 19.929688 210.433594 C 16.402344 208.648438 13.148438 206.214844 10.304688 203.183594 C 3.851562 196.3125 0.207031 187.136719 0.046875 177.351562 C -0.238281 160.414062 8.375 142.484375 28.261719 140.625 C 28.65625 140.585938 29.042969 140.566406 29.425781 140.539062 C 29.355469 140.382812 29.28125 140.234375 29.210938 140.078125 C 26.929688 135 25.722656 129.527344 25.628906 123.828125 C 25.460938 113.410156 29.050781 103.546875 35.753906 96.046875 C 42.449219 88.550781 51.457031 84.320312 61.105469 84.128906 C 61.578125 84.121094 62.050781 84.125 62.523438 84.132812 C 62.222656 82.222656 62.0625 80.277344 62.027344 78.3125 C 61.851562 67.902344 65.449219 58.035156 72.144531 50.535156 C 78.847656 43.039062 87.851562 38.808594 97.5 38.617188 C 98.164062 38.605469 98.832031 38.617188 99.496094 38.648438 C 99.539062 30.753906 102.074219 23.09375 106.921875 16.503906 C 113.785156 7.183594 124.765625 1.035156 134.894531 0.839844 C 146.167969 0.617188 156.460938 4.71875 163.863281 12.382812 C 165.734375 14.324219 167.40625 16.464844 168.867188 18.785156 C 173.601562 26.289062 176.160156 35.691406 176.339844 46.429688 C 176.574219 60.496094 172.691406 73.84375 165.40625 84.023438 C 161.75 89.128906 157.457031 93.148438 152.738281 95.964844 C 164.214844 103.59375 171.824219 117.167969 172.082031 132.648438 C 172.269531 143.972656 169.214844 154.09375 163.238281 161.90625 C 162.457031 162.925781 161.660156 163.871094 160.84375 164.75 C 167.617188 166.609375 173.851562 170.34375 179.015625 175.71875 C 186.851562 183.875 191.273438 194.839844 191.46875 206.585938 C 191.757812 223.894531 182.6875 239.550781 168.519531 246.960938 Z M 168.515625 246.960938 " fill-opacity="1" fill-rule="nonzero"/></g></g></g></g></g><g mask="url(#bdc62d03ca)"><g transform="matrix(1, 0, 0, 1, 172, 18)"><g clip-path="url(#6f0e9df84d)"><g clip-path="url(#53e37b5045)"><path fill="#1f628e" d="M 170.824219 100.789062 L 168.992188 202.890625 L 163.746094 204.4375 L 162.957031 260.023438 L 109.191406 324.578125 L 88.722656 324.578125 L 88.988281 331.089844 L 30.238281 329.953125 L 29.179688 314.355469 L 16.589844 313.617188 L 14.488281 313.617188 C 14.441406 313.5 14.394531 313.386719 14.351562 313.28125 C 14.234375 313.003906 14.117188 312.75 14 312.5 C 14.8125 311.496094 15.585938 310.4375 16.328125 309.328125 C 23.578125 298.441406 25.78125 285.167969 26.351562 275.957031 C 26.527344 273.078125 27.136719 257.960938 21.585938 243.171875 C 20.167969 239.398438 18.472656 235.992188 16.511719 232.960938 C 30.683594 225.554688 39.75 209.894531 39.460938 192.585938 C 39.265625 180.839844 34.84375 169.875 27.007812 161.71875 C 21.84375 156.34375 15.609375 152.609375 8.835938 150.75 C 9.652344 149.871094 10.449219 148.921875 11.230469 147.90625 C 17.207031 140.09375 20.265625 129.972656 20.074219 118.648438 C 19.820312 103.171875 12.210938 89.597656 0.734375 81.964844 C 5.449219 79.148438 9.746094 75.128906 13.398438 70.023438 C 20.683594 59.84375 24.566406 46.492188 24.335938 32.429688 C 24.152344 21.691406 21.59375 12.289062 16.859375 4.785156 L 20.292969 1.246094 L 91.65625 1.246094 L 98.953125 8.957031 L 112.851562 12.003906 L 149.570312 52.746094 L 149.570312 97.726562 L 170.820312 100.789062 Z M 170.824219 100.789062 " fill-opacity="1" fill-rule="nonzero"/></g></g></g></g><path fill="#1f628e" d="M 220.039062 201.097656 C 217.75 201.097656 215.777344 202.53125 214.828125 204.605469 L 179.371094 204.605469 C 178.421875 202.53125 176.449219 201.097656 174.160156 201.097656 C 170.949219 201.097656 168.34375 203.910156 168.34375 207.375 C 168.34375 210.84375 170.949219 213.652344 174.160156 213.652344 C 176.449219 213.652344 178.421875 212.222656 179.371094 210.148438 L 214.828125 210.148438 C 215.777344 212.222656 217.75 213.652344 220.039062 213.652344 C 223.25 213.652344 225.855469 210.84375 225.855469 207.375 C 225.855469 203.910156 223.253906 201.097656 220.039062 201.097656 Z M 220.039062 201.097656 " fill-opacity="1" fill-rule="nonzero"/><path fill="#1f628e" d="M 209.554688 303.324219 C 212.761719 303.324219 215.367188 300.511719 215.367188 297.046875 C 215.367188 293.578125 212.765625 290.769531 209.554688 290.769531 C 209.367188 290.769531 209.1875 290.777344 209.007812 290.800781 L 198.785156 276.628906 L 179.375 276.628906 C 178.425781 274.554688 176.453125 273.125 174.164062 273.125 C 170.953125 273.125 168.347656 275.933594 168.347656 279.402344 C 168.347656 282.867188 170.949219 285.679688 174.164062 285.679688 C 176.453125 285.679688 178.425781 284.246094 179.375 282.171875 L 196.277344 282.171875 L 204.621094 293.738281 C 204.066406 294.699219 203.742188 295.828125 203.742188 297.046875 C 203.742188 300.511719 206.34375 303.324219 209.554688 303.324219 Z M 209.554688 303.324219 " fill-opacity="1" fill-rule="nonzero"/><path fill="#1f628e" d="M 222.246094 276.585938 L 237.386719 276.585938 L 249.523438 289.6875 L 270.902344 289.6875 L 283.761719 275.804688 L 283.761719 268.921875 L 298.0625 268.921875 L 298.0625 231.101562 L 275.277344 231.101562 L 264.324219 242.921875 L 264.324219 246.511719 L 249.925781 246.511719 L 237.789062 259.613281 L 214.058594 259.613281 C 213.109375 257.539062 211.136719 256.109375 208.847656 256.109375 C 205.636719 256.109375 203.03125 258.917969 203.03125 262.386719 C 203.03125 265.851562 205.632812 268.664062 208.847656 268.664062 C 211.136719 268.664062 213.109375 267.230469 214.058594 265.15625 L 239.917969 265.15625 L 252.054688 252.058594 L 264.324219 252.058594 L 264.324219 268.921875 L 278.625 268.921875 L 278.625 273.507812 L 268.773438 284.144531 L 251.648438 284.144531 L 239.511719 271.042969 L 221.609375 271.042969 C 220.566406 269.351562 218.785156 268.234375 216.765625 268.234375 C 213.554688 268.234375 210.949219 271.046875 210.949219 274.511719 C 210.949219 277.980469 213.550781 280.789062 216.765625 280.789062 C 219.300781 280.789062 221.453125 279.03125 222.246094 276.585938 Z M 269.464844 245.21875 L 277.410156 236.644531 L 292.921875 236.644531 L 292.921875 263.375 L 269.464844 263.375 Z M 269.464844 245.21875 " fill-opacity="1" fill-rule="nonzero"/><path fill="#1f628e" d="M 230.3125 231.785156 C 233.523438 231.785156 236.128906 228.972656 236.128906 225.507812 C 236.128906 222.039062 233.527344 219.230469 230.3125 219.230469 C 228.023438 219.230469 226.050781 220.660156 225.101562 222.734375 L 179.371094 222.734375 C 178.421875 220.660156 176.449219 219.230469 174.160156 219.230469 C 170.949219 219.230469 168.34375 222.039062 168.34375 225.507812 C 168.34375 228.972656 170.949219 231.785156 174.160156 231.785156 C 176.449219 231.785156 178.421875 230.351562 179.371094 228.277344 L 225.101562 228.277344 C 226.050781 230.351562 228.023438 231.785156 230.3125 231.785156 Z M 230.3125 231.785156 " fill-opacity="1" fill-rule="nonzero"/><path fill="#1f628e" d="M 175.308594 151.265625 L 197.789062 151.265625 C 198.738281 153.339844 200.710938 154.773438 203 154.773438 C 206.210938 154.773438 208.816406 151.960938 208.816406 148.496094 C 208.816406 145.027344 206.214844 142.21875 203 142.21875 C 200.710938 142.21875 198.738281 143.648438 197.789062 145.722656 L 175.308594 145.722656 C 174.359375 143.648438 172.386719 142.21875 170.097656 142.21875 C 166.886719 142.21875 164.28125 145.027344 164.28125 148.496094 C 164.28125 151.960938 166.882812 154.773438 170.097656 154.773438 C 172.386719 154.773438 174.359375 153.339844 175.308594 151.265625 Z M 175.308594 151.265625 " fill-opacity="1" fill-rule="nonzero"/><path fill="#1f628e" d="M 168.515625 76.234375 L 193.976562 76.234375 L 210.894531 52.703125 L 221.261719 52.703125 C 222.207031 54.777344 224.179688 56.210938 226.472656 56.210938 C 229.679688 56.210938 232.285156 53.398438 232.285156 49.933594 C 232.285156 46.464844 229.683594 43.65625 226.472656 43.65625 C 224.179688 43.65625 222.207031 45.085938 221.261719 47.160156 L 208.378906 47.160156 L 191.460938 70.6875 L 169.519531 70.6875 C 168.832031 68.050781 166.589844 66.113281 163.925781 66.113281 C 160.71875 66.113281 158.113281 68.925781 158.113281 72.390625 C 158.113281 75.859375 160.714844 78.667969 163.925781 78.667969 C 165.796875 78.667969 167.453125 77.714844 168.515625 76.234375 Z M 168.515625 76.234375 " fill-opacity="1" fill-rule="nonzero"/><path fill="#1f628e" d="M 311.0625 127.304688 L 332.085938 127.304688 L 332.085938 211.183594 L 311.0625 211.183594 Z M 311.0625 127.304688 " fill-opacity="1" fill-rule="nonzero"/><path fill="#1f628e" d="M 349.179688 127.046875 L 349.179688 124.273438 L 354.960938 124.273438 L 354.960938 118.730469 L 349.179688 118.730469 L 349.179688 115.957031 L 343.75 115.957031 L 343.75 113.925781 L 324.144531 113.925781 L 324.144531 69.339844 L 286.050781 26.976562 L 272.6875 25.648438 L 264.953125 16.429688 L 190.644531 16.429688 L 176.121094 35.066406 L 170.085938 34.96875 C 169.277344 32.550781 167.140625 30.820312 164.621094 30.820312 C 161.410156 30.820312 158.804688 33.628906 158.804688 37.097656 C 158.804688 40.5625 161.410156 43.375 164.621094 43.375 C 166.667969 43.375 168.464844 42.230469 169.5 40.503906 L 178.476562 40.65625 L 193.035156 21.976562 L 262.671875 21.976562 L 270.222656 30.972656 L 283.6875 32.3125 L 319 71.589844 L 319 113.929688 L 311.058594 113.929688 L 311.476562 77.066406 L 279.828125 42.039062 L 266.894531 42.039062 L 257.582031 29.046875 L 201.519531 29.046875 L 182.722656 52.828125 L 169.542969 52.828125 C 168.894531 50.125 166.628906 48.125 163.921875 48.125 C 160.714844 48.125 158.109375 50.9375 158.109375 54.402344 C 158.109375 57.871094 160.710938 60.679688 163.921875 60.679688 C 165.738281 60.679688 167.359375 59.78125 168.425781 58.375 L 185.09375 58.375 L 203.890625 34.59375 L 255.0625 34.59375 L 264.371094 47.589844 L 277.664062 47.589844 L 306.316406 79.296875 L 305.921875 113.933594 L 299.402344 113.933594 L 299.402344 115.964844 L 293.972656 115.964844 L 293.972656 118.738281 L 255.480469 118.738281 L 233.644531 95.167969 L 197.425781 95.167969 L 172.265625 122.324219 C 171.59375 122.035156 170.863281 121.871094 170.097656 121.871094 C 166.886719 121.871094 164.28125 124.679688 164.28125 128.148438 C 164.28125 131.613281 166.882812 134.425781 170.097656 134.425781 C 173.308594 134.425781 175.910156 131.613281 175.910156 128.148438 C 175.910156 127.5625 175.832031 127 175.691406 126.464844 L 199.550781 100.714844 L 231.515625 100.714844 L 253.351562 124.285156 L 293.96875 124.285156 L 293.96875 127.058594 L 299.398438 127.058594 L 299.398438 134.871094 L 293.96875 134.871094 L 293.96875 137.640625 L 248.628906 137.640625 L 236.488281 124.542969 L 210.628906 124.542969 C 209.679688 122.46875 207.707031 121.035156 205.417969 121.035156 C 202.210938 121.035156 199.605469 123.847656 199.605469 127.3125 C 199.605469 130.78125 202.207031 133.589844 205.417969 133.589844 C 207.707031 133.589844 209.679688 132.160156 210.628906 130.085938 L 234.359375 130.085938 L 246.496094 143.1875 L 293.964844 143.1875 L 293.964844 145.957031 L 299.394531 145.957031 L 299.394531 153.769531 L 293.964844 153.769531 L 293.964844 156.542969 L 241.777344 156.542969 L 229.640625 143.441406 L 223.175781 143.441406 C 222.226562 141.371094 220.253906 139.9375 217.964844 139.9375 C 214.753906 139.9375 212.148438 142.75 212.148438 146.214844 C 212.148438 149.683594 214.75 152.492188 217.964844 152.492188 C 220.253906 152.492188 222.226562 151.0625 223.175781 148.988281 L 227.507812 148.988281 L 239.648438 162.085938 L 293.964844 162.085938 L 293.964844 164.859375 L 299.394531 164.859375 L 299.394531 172.671875 L 293.964844 172.671875 L 293.964844 174.574219 L 232.871094 174.574219 L 232.871094 166.835938 L 228.980469 166.835938 L 228.980469 160.703125 L 223.839844 160.703125 L 223.839844 166.835938 L 220.257812 166.835938 L 220.257812 160.703125 L 215.117188 160.703125 L 215.117188 166.835938 L 212.429688 166.835938 L 212.429688 169.769531 L 206.960938 169.769531 L 206.960938 175.3125 L 212.429688 175.3125 L 212.429688 179.183594 L 206.960938 179.183594 L 206.960938 184.726562 L 212.429688 184.726562 L 212.429688 187.851562 L 215.117188 187.851562 L 215.117188 193.710938 L 220.257812 193.710938 L 220.257812 187.851562 L 223.839844 187.851562 L 223.839844 193.710938 L 228.980469 193.710938 L 228.980469 187.851562 L 232.871094 187.851562 L 232.871094 180.117188 L 293.964844 180.117188 L 293.964844 183.761719 L 299.394531 183.761719 L 299.394531 191.574219 L 293.964844 191.574219 L 293.964844 194.640625 L 258.828125 194.640625 L 246.6875 207.742188 L 242.351562 207.742188 C 241.40625 205.667969 239.433594 204.238281 237.144531 204.238281 C 233.933594 204.238281 231.328125 207.046875 231.328125 210.515625 C 231.328125 213.980469 233.929688 216.792969 237.144531 216.792969 C 239.433594 216.792969 241.40625 215.359375 242.351562 213.285156 L 248.820312 213.285156 L 260.957031 200.1875 L 293.96875 200.1875 L 293.96875 202.664062 L 299.398438 202.664062 L 299.398438 210.476562 L 293.96875 210.476562 L 293.96875 213.246094 L 267.292969 213.246094 L 241.902344 240.710938 L 225.246094 240.710938 C 224.300781 238.636719 222.328125 237.207031 220.039062 237.207031 C 216.828125 237.207031 214.222656 240.015625 214.222656 243.484375 C 214.222656 246.953125 216.824219 249.761719 220.039062 249.761719 C 222.328125 249.761719 224.300781 248.332031 225.246094 246.257812 L 244.03125 246.257812 L 269.421875 218.792969 L 293.964844 218.792969 L 293.964844 221.5625 L 299.394531 221.5625 L 299.394531 224.566406 L 305.867188 224.566406 L 305.867188 267.683594 L 283.234375 294.082031 L 271.335938 294.082031 L 266.925781 299.335938 L 245.53125 299.335938 L 232.351562 285.113281 L 229.203125 285.113281 C 228.292969 282.929688 226.261719 281.40625 223.898438 281.40625 C 220.691406 281.40625 218.085938 284.214844 218.085938 287.683594 C 218.085938 291.148438 220.6875 293.960938 223.898438 293.960938 C 226.113281 293.960938 228.039062 292.621094 229.019531 290.65625 L 230.222656 290.65625 L 243.402344 304.882812 L 269.199219 304.882812 L 273.613281 299.625 L 285.476562 299.625 L 310.996094 269.859375 L 310.996094 224.570312 L 318.996094 224.570312 L 318.996094 273.179688 L 270.421875 329.539062 L 263.644531 329.539062 L 263.644531 313.210938 L 260.390625 313.210938 L 260.390625 309.320312 L 255.253906 309.320312 L 255.253906 313.210938 L 249.726562 313.210938 L 249.726562 309.320312 L 244.585938 309.320312 L 244.585938 313.210938 L 239.058594 313.210938 L 239.058594 309.320312 L 233.921875 309.320312 L 233.921875 313.210938 L 228.394531 313.210938 L 228.394531 309.320312 L 223.257812 309.320312 L 223.257812 313.210938 L 217.730469 313.210938 L 217.730469 309.320312 L 212.59375 309.320312 L 212.59375 313.210938 L 207.066406 313.210938 L 207.066406 309.320312 L 201.929688 309.320312 L 201.929688 313.210938 L 199.21875 313.210938 L 199.21875 329.597656 L 190.820312 329.597656 L 178.8125 304.589844 C 179.523438 303.546875 179.949219 302.265625 179.949219 300.875 C 179.949219 297.40625 177.347656 294.597656 174.132812 294.597656 C 170.917969 294.597656 168.316406 297.40625 168.316406 300.875 C 168.316406 304.339844 170.917969 307.152344 174.132812 307.152344 C 174.171875 307.152344 174.214844 307.144531 174.25 307.144531 L 187.695312 335.144531 L 199.214844 335.144531 L 199.214844 351.40625 L 201.925781 351.40625 L 201.925781 355.296875 L 207.0625 355.296875 L 207.0625 351.40625 L 212.589844 351.40625 L 212.589844 355.296875 L 217.726562 355.296875 L 217.726562 351.40625 L 223.253906 351.40625 L 223.253906 355.296875 L 228.390625 355.296875 L 228.390625 351.40625 L 233.917969 351.40625 L 233.917969 355.296875 L 239.058594 355.296875 L 239.058594 351.40625 L 244.582031 351.40625 L 244.582031 355.296875 L 249.722656 355.296875 L 249.722656 351.40625 L 255.25 351.40625 L 255.25 355.296875 L 260.386719 355.296875 L 260.386719 351.40625 L 263.640625 351.40625 L 263.640625 345.476562 L 280.960938 345.476562 L 337.699219 280.503906 L 337.699219 224.566406 L 343.730469 224.566406 L 343.730469 221.5625 L 349.160156 221.5625 L 349.160156 218.792969 L 354.941406 218.792969 L 354.941406 213.246094 L 349.160156 213.246094 L 349.160156 210.476562 L 343.730469 210.476562 L 343.730469 202.664062 L 349.160156 202.664062 L 349.160156 199.890625 L 354.941406 199.890625 L 354.941406 194.347656 L 349.160156 194.347656 L 349.160156 191.574219 L 343.730469 191.574219 L 343.730469 183.761719 L 349.160156 183.761719 L 349.160156 180.988281 L 354.941406 180.988281 L 354.941406 175.445312 L 349.160156 175.445312 L 349.160156 172.671875 L 343.730469 172.671875 L 343.730469 164.859375 L 349.160156 164.859375 L 349.160156 162.085938 L 354.941406 162.085938 L 354.941406 156.542969 L 349.160156 156.542969 L 349.160156 153.769531 L 343.730469 153.769531 L 343.730469 145.957031 L 349.160156 145.957031 L 349.160156 143.1875 L 354.941406 143.1875 L 354.941406 137.640625 L 349.160156 137.640625 L 349.160156 134.871094 L 343.730469 134.871094 L 343.730469 127.058594 L 349.160156 127.058594 Z M 227.738281 182.304688 L 217.574219 182.304688 L 217.574219 172.378906 L 227.738281 172.378906 Z M 235.507812 329.769531 C 236.453125 331.621094 238.273438 332.875 240.371094 332.875 C 243.4375 332.875 245.921875 330.191406 245.921875 326.882812 C 245.921875 323.570312 243.433594 320.890625 240.371094 320.890625 C 238.1875 320.890625 236.304688 322.25 235.398438 324.226562 L 213.839844 324.226562 L 209.332031 329.597656 L 204.378906 329.597656 L 204.378906 318.757812 L 258.523438 318.757812 L 258.523438 329.539062 L 254.496094 329.539062 L 248.582031 336.585938 L 226.222656 336.585938 C 225.523438 334.144531 223.414062 332.375 220.921875 332.375 C 217.855469 332.375 215.371094 335.054688 215.371094 338.367188 C 215.371094 341.675781 217.859375 344.359375 220.921875 344.359375 C 222.667969 344.359375 224.222656 343.488281 225.242188 342.128906 L 250.859375 342.128906 L 256.773438 335.085938 L 258.523438 335.085938 L 258.523438 345.867188 L 204.378906 345.867188 L 204.378906 335.148438 L 211.605469 335.148438 L 216.113281 329.773438 L 235.503906 329.773438 Z M 332.582031 278.300781 L 278.765625 339.929688 L 263.664062 339.929688 L 263.664062 335.078125 L 272.675781 335.078125 L 324.148438 275.355469 L 324.148438 224.5625 L 332.585938 224.5625 L 332.585938 278.296875 Z M 338.613281 219.019531 L 304.539062 219.019531 L 304.539062 119.46875 L 338.613281 119.46875 Z M 338.613281 219.019531 " fill-opacity="1" fill-rule="nonzero"/><path fill="#1f628e" d="M 281.191406 241.234375 C 276.28125 241.234375 272.289062 245.542969 272.289062 250.84375 C 272.289062 256.148438 276.28125 260.457031 281.191406 260.457031 C 286.101562 260.457031 290.09375 256.148438 290.09375 250.84375 C 290.09375 245.542969 286.101562 241.234375 281.191406 241.234375 Z M 281.191406 254.910156 C 279.113281 254.910156 277.425781 253.085938 277.425781 250.84375 C 277.425781 248.605469 279.113281 246.78125 281.191406 246.78125 C 283.269531 246.78125 284.957031 248.605469 284.957031 250.84375 C 284.957031 253.085938 283.269531 254.910156 281.191406 254.910156 Z M 281.191406 254.910156 " fill-opacity="1" fill-rule="nonzero"/><path fill="#1f628e" d="M 267.132812 51.96875 L 245.753906 51.96875 L 233.617188 65.070312 L 222.246094 65.070312 C 221.449219 62.621094 219.300781 60.863281 216.765625 60.863281 C 213.554688 60.863281 210.949219 63.675781 210.949219 67.140625 C 210.949219 70.609375 213.550781 73.417969 216.765625 73.417969 C 218.785156 73.417969 220.566406 72.304688 221.609375 70.613281 L 235.746094 70.613281 L 247.882812 57.511719 L 265.007812 57.511719 L 274.859375 68.144531 L 274.859375 72.734375 L 260.558594 72.734375 L 260.558594 89.597656 L 248.289062 89.597656 L 236.152344 76.496094 L 214.058594 76.496094 C 213.109375 74.421875 211.136719 72.992188 208.847656 72.992188 C 205.636719 72.992188 203.03125 75.804688 203.03125 79.269531 C 203.03125 82.738281 205.632812 85.546875 208.847656 85.546875 C 211.136719 85.546875 213.109375 84.117188 214.058594 82.042969 L 234.023438 82.042969 L 246.160156 95.140625 L 260.558594 95.140625 L 260.558594 98.734375 L 271.511719 110.554688 L 294.296875 110.554688 L 294.296875 81.523438 L 286.152344 72.734375 L 279.996094 72.734375 L 279.996094 65.851562 L 267.136719 51.96875 Z M 289.15625 83.824219 L 289.15625 105.015625 L 273.644531 105.015625 L 265.699219 96.441406 L 265.699219 78.285156 L 284.023438 78.285156 Z M 289.15625 83.824219 " fill-opacity="1" fill-rule="nonzero"/><path fill="#1f628e" d="M 277.425781 100.425781 C 282.335938 100.425781 286.328125 96.113281 286.328125 90.816406 C 286.328125 85.519531 282.335938 81.203125 277.425781 81.203125 C 272.515625 81.203125 268.523438 85.515625 268.523438 90.816406 C 268.523438 96.117188 272.515625 100.425781 277.425781 100.425781 Z M 277.425781 86.75 C 279.503906 86.75 281.191406 88.574219 281.191406 90.8125 C 281.191406 93.054688 279.503906 94.878906 277.425781 94.878906 C 275.347656 94.878906 273.660156 93.054688 273.660156 90.8125 C 273.660156 88.574219 275.347656 86.75 277.425781 86.75 Z M 277.425781 86.75 " fill-opacity="1" fill-rule="nonzero"/><path fill="#ff914d" d="M 101.539062 170.835938 C 101.539062 172.523438 100.269531 173.894531 98.703125 173.894531 C 97.140625 173.894531 95.867188 172.523438 95.867188 170.835938 C 95.867188 169.148438 97.136719 167.769531 98.703125 167.769531 C 100.269531 167.769531 101.539062 169.144531 101.539062 170.835938 Z M 101.539062 170.835938 " fill-opacity="1" fill-rule="nonzero"/><path fill="#ff914d" d="M 68.710938 123.507812 C 68.710938 125.199219 67.4375 126.570312 65.871094 126.570312 C 64.304688 126.570312 63.039062 125.199219 63.039062 123.507812 C 63.039062 121.816406 64.308594 120.445312 65.871094 120.445312 C 67.4375 120.445312 68.710938 121.816406 68.710938 123.507812 Z M 68.710938 123.507812 " fill-opacity="1" fill-rule="nonzero"/><path fill="#ff914d" d="M 93.15625 114.332031 C 93.15625 116.023438 91.886719 117.394531 90.320312 117.394531 C 88.757812 117.394531 87.484375 116.023438 87.484375 114.332031 C 87.484375 112.640625 88.753906 111.269531 90.320312 111.269531 C 91.886719 111.269531 93.15625 112.640625 93.15625 114.332031 Z M 93.15625 114.332031 " fill-opacity="1" fill-rule="nonzero"/><path fill="#ff914d" d="M 95.90625 197.351562 C 95.511719 198.988281 93.960938 199.96875 92.441406 199.542969 C 90.921875 199.117188 90.015625 197.445312 90.410156 195.804688 C 90.804688 194.167969 92.359375 193.1875 93.875 193.613281 C 95.390625 194.039062 96.300781 195.714844 95.90625 197.351562 Z M 95.90625 197.351562 " fill-opacity="1" fill-rule="nonzero"/><path fill="#ff914d" d="M 53.046875 169.621094 C 52.652344 171.257812 51.101562 172.242188 49.582031 171.816406 C 48.066406 171.386719 47.160156 169.714844 47.550781 168.078125 C 47.949219 166.441406 49.5 165.460938 51.015625 165.882812 C 52.53125 166.3125 53.441406 167.984375 53.046875 169.621094 Z M 53.046875 169.621094 " fill-opacity="1" fill-rule="nonzero"/><path fill="#ff914d" d="M 134.671875 184.222656 C 134.671875 184.628906 134.601562 185.019531 134.457031 185.394531 C 134.3125 185.769531 134.109375 186.101562 133.84375 186.390625 C 133.574219 186.675781 133.269531 186.898438 132.921875 187.054688 C 132.574219 187.210938 132.210938 187.289062 131.835938 187.289062 C 131.457031 187.289062 131.097656 187.210938 130.75 187.054688 C 130.402344 186.898438 130.09375 186.675781 129.828125 186.390625 C 129.5625 186.101562 129.355469 185.769531 129.210938 185.394531 C 129.070312 185.019531 128.996094 184.628906 128.996094 184.222656 C 128.996094 183.816406 129.070312 183.425781 129.210938 183.050781 C 129.355469 182.675781 129.5625 182.34375 129.828125 182.054688 C 130.09375 181.769531 130.402344 181.546875 130.75 181.390625 C 131.097656 181.238281 131.457031 181.160156 131.835938 181.160156 C 132.210938 181.160156 132.574219 181.238281 132.921875 181.390625 C 133.269531 181.546875 133.574219 181.769531 133.84375 182.054688 C 134.109375 182.34375 134.3125 182.675781 134.457031 183.050781 C 134.601562 183.425781 134.671875 183.816406 134.671875 184.222656 Z M 134.671875 184.222656 " fill-opacity="1" fill-rule="nonzero"/><path fill="#ff914d" d="M 93.53125 255.046875 C 93.53125 256.738281 92.261719 258.109375 90.695312 258.109375 C 89.132812 258.109375 87.859375 256.738281 87.859375 255.046875 C 87.859375 253.355469 89.128906 251.980469 90.695312 251.980469 C 92.265625 251.980469 93.53125 253.355469 93.53125 255.046875 Z M 93.53125 255.046875 " fill-opacity="1" fill-rule="nonzero"/><path fill="#ff914d" d="M 81.066406 234.835938 C 81.066406 236.527344 79.796875 237.898438 78.234375 237.898438 C 76.667969 237.898438 75.394531 236.527344 75.394531 234.835938 C 75.394531 233.144531 76.667969 231.769531 78.234375 231.769531 C 79.800781 231.769531 81.066406 233.144531 81.066406 234.835938 Z M 81.066406 234.835938 " fill-opacity="1" fill-rule="nonzero"/><path fill="#ff914d" d="M 59.960938 239.144531 C 59.960938 239.550781 59.886719 239.941406 59.742188 240.316406 C 59.601562 240.695312 59.394531 241.023438 59.128906 241.3125 C 58.863281 241.597656 58.554688 241.820312 58.207031 241.976562 C 57.859375 242.132812 57.5 242.210938 57.121094 242.210938 C 56.746094 242.210938 56.382812 242.132812 56.035156 241.976562 C 55.6875 241.820312 55.382812 241.597656 55.113281 241.3125 C 54.847656 241.023438 54.644531 240.695312 54.5 240.316406 C 54.355469 239.941406 54.285156 239.550781 54.285156 239.144531 C 54.285156 238.738281 54.355469 238.347656 54.5 237.972656 C 54.644531 237.597656 54.847656 237.265625 55.113281 236.980469 C 55.382812 236.691406 55.6875 236.46875 56.035156 236.316406 C 56.382812 236.160156 56.746094 236.082031 57.121094 236.082031 C 57.5 236.082031 57.859375 236.160156 58.207031 236.316406 C 58.554688 236.46875 58.863281 236.691406 59.128906 236.980469 C 59.394531 237.265625 59.601562 237.597656 59.742188 237.972656 C 59.886719 238.347656 59.960938 238.738281 59.960938 239.144531 Z M 59.960938 239.144531 " fill-opacity="1" fill-rule="nonzero"/><path fill="#ff914d" d="M 48.859375 190.722656 C 48.859375 192.414062 47.585938 193.785156 46.023438 193.785156 C 44.460938 193.785156 43.183594 192.414062 43.183594 190.722656 C 43.183594 189.03125 44.457031 187.660156 46.023438 187.660156 C 47.589844 187.660156 48.859375 189.03125 48.859375 190.722656 Z M 48.859375 190.722656 " fill-opacity="1" fill-rule="nonzero"/><path fill="#ff914d" d="M 59.960938 261.171875 C 59.960938 262.863281 58.6875 264.234375 57.121094 264.234375 C 55.554688 264.234375 54.285156 262.863281 54.285156 261.171875 C 54.285156 259.476562 55.554688 258.109375 57.121094 258.109375 C 58.6875 258.109375 59.960938 259.480469 59.960938 261.171875 Z M 59.960938 261.171875 " fill-opacity="1" fill-rule="nonzero"/><path fill="#ff914d" d="M 108.429688 281.949219 C 106.859375 281.949219 105.589844 283.324219 105.589844 285.015625 C 105.589844 286.707031 106.859375 288.078125 108.429688 288.078125 C 109.996094 288.078125 111.265625 286.707031 111.265625 285.015625 C 111.265625 283.324219 109.996094 281.949219 108.429688 281.949219 Z M 108.429688 281.949219 " fill-opacity="1" fill-rule="nonzero"/><path fill="#ff914d" d="M 132.410156 319.03125 C 132.410156 317.339844 131.140625 315.96875 129.574219 315.96875 C 128.007812 315.96875 126.734375 317.339844 126.734375 319.03125 C 126.734375 320.722656 128.007812 322.09375 129.574219 322.09375 C 131.140625 322.09375 132.410156 320.722656 132.410156 319.03125 Z M 132.410156 319.03125 " fill-opacity="1" fill-rule="nonzero"/><path fill="#ff914d" d="M 108.429688 314 C 106.859375 314 105.589844 315.375 105.589844 317.066406 C 105.589844 318.757812 106.859375 320.128906 108.429688 320.128906 C 109.996094 320.128906 111.265625 318.757812 111.265625 317.066406 C 111.265625 315.375 109.996094 314 108.429688 314 Z M 108.429688 314 " fill-opacity="1" fill-rule="nonzero"/><path fill="#ff914d" d="M 127.375 271.800781 C 127.375 272.207031 127.300781 272.597656 127.160156 272.972656 C 127.015625 273.347656 126.808594 273.679688 126.542969 273.964844 C 126.277344 274.253906 125.96875 274.476562 125.621094 274.632812 C 125.273438 274.785156 124.914062 274.863281 124.535156 274.863281 C 124.160156 274.863281 123.796875 274.785156 123.449219 274.632812 C 123.101562 274.476562 122.796875 274.253906 122.53125 273.964844 C 122.261719 273.679688 122.058594 273.347656 121.914062 272.972656 C 121.769531 272.597656 121.699219 272.207031 121.699219 271.800781 C 121.699219 271.394531 121.769531 271.003906 121.914062 270.628906 C 122.058594 270.253906 122.261719 269.921875 122.53125 269.632812 C 122.796875 269.347656 123.101562 269.125 123.449219 268.96875 C 123.796875 268.8125 124.160156 268.734375 124.535156 268.734375 C 124.914062 268.734375 125.273438 268.8125 125.621094 268.96875 C 125.96875 269.125 126.277344 269.347656 126.542969 269.632812 C 126.808594 269.921875 127.015625 270.253906 127.160156 270.628906 C 127.300781 271.003906 127.375 271.394531 127.375 271.800781 Z M 127.375 271.800781 " fill-opacity="1" fill-rule="nonzero"/><path fill="#ff914d" d="M 161.761719 320.125 C 161.761719 321.816406 163.035156 323.191406 164.601562 323.191406 C 166.167969 323.191406 167.4375 321.816406 167.4375 320.125 C 167.4375 318.433594 166.167969 317.0625 164.601562 317.0625 C 163.035156 317.0625 161.761719 318.433594 161.761719 320.125 Z M 161.761719 320.125 " fill-opacity="1" fill-rule="nonzero"/><path fill="#ff914d" d="M 154.535156 293.96875 C 154.535156 295.664062 155.808594 297.035156 157.375 297.035156 C 158.941406 297.035156 160.214844 295.664062 160.214844 293.96875 C 160.214844 292.277344 158.941406 290.90625 157.375 290.90625 C 155.808594 290.90625 154.535156 292.277344 154.535156 293.96875 Z M 154.535156 293.96875 " fill-opacity="1" fill-rule="nonzero"/><path fill="#ff914d" d="M 138.234375 222.433594 C 136.667969 222.433594 135.394531 223.804688 135.394531 225.496094 C 135.394531 227.1875 136.667969 228.5625 138.234375 228.5625 C 139.800781 228.5625 141.070312 227.1875 141.070312 225.496094 C 141.070312 223.804688 139.800781 222.433594 138.234375 222.433594 Z M 138.234375 222.433594 " fill-opacity="1" fill-rule="nonzero"/><path fill="#ff914d" d="M 143.90625 252.339844 C 145.472656 252.339844 146.746094 250.96875 146.746094 249.277344 C 146.746094 247.582031 145.472656 246.210938 143.90625 246.210938 C 142.339844 246.210938 141.070312 247.582031 141.070312 249.277344 C 141.070312 250.96875 142.339844 252.339844 143.90625 252.339844 Z M 143.90625 252.339844 " fill-opacity="1" fill-rule="nonzero"/><path fill="#ff914d" d="M 112.917969 231.773438 C 112.917969 233.464844 114.1875 234.835938 115.753906 234.835938 C 117.320312 234.835938 118.59375 233.464844 118.59375 231.773438 C 118.59375 230.082031 117.320312 228.710938 115.753906 228.710938 C 114.1875 228.710938 112.917969 230.082031 112.917969 231.773438 Z M 112.917969 231.773438 " fill-opacity="1" fill-rule="nonzero"/><path fill="#ff914d" d="M 159.011719 190.578125 C 159.011719 192.269531 160.28125 193.640625 161.847656 193.640625 C 163.417969 193.640625 164.6875 192.269531 164.6875 190.578125 C 164.6875 188.886719 163.417969 187.511719 161.847656 187.511719 C 160.28125 187.511719 159.011719 188.886719 159.011719 190.578125 Z M 159.011719 190.578125 " fill-opacity="1" fill-rule="nonzero"/><path fill="#ff914d" d="M 125.472656 148.480469 C 125.472656 148.886719 125.402344 149.277344 125.257812 149.652344 C 125.113281 150.027344 124.910156 150.359375 124.644531 150.648438 C 124.375 150.933594 124.070312 151.15625 123.722656 151.3125 C 123.375 151.464844 123.011719 151.542969 122.636719 151.542969 C 122.257812 151.542969 121.898438 151.464844 121.550781 151.3125 C 121.203125 151.15625 120.894531 150.933594 120.628906 150.648438 C 120.363281 150.359375 120.15625 150.027344 120.015625 149.652344 C 119.871094 149.277344 119.796875 148.886719 119.796875 148.480469 C 119.796875 148.074219 119.871094 147.683594 120.015625 147.308594 C 120.15625 146.933594 120.363281 146.601562 120.628906 146.3125 C 120.894531 146.027344 121.203125 145.804688 121.550781 145.648438 C 121.898438 145.492188 122.257812 145.417969 122.636719 145.417969 C 123.011719 145.417969 123.375 145.492188 123.722656 145.648438 C 124.070312 145.804688 124.375 146.027344 124.644531 146.3125 C 124.910156 146.601562 125.113281 146.933594 125.257812 147.308594 C 125.402344 147.683594 125.472656 148.074219 125.472656 148.480469 Z M 125.472656 148.480469 " fill-opacity="1" fill-rule="nonzero"/><path fill="#ff914d" d="M 108.972656 73.800781 C 108.972656 75.492188 110.246094 76.867188 111.8125 76.867188 C 113.378906 76.867188 114.648438 75.492188 114.648438 73.800781 C 114.648438 72.109375 113.378906 70.738281 111.8125 70.738281 C 110.246094 70.738281 108.972656 72.109375 108.972656 73.800781 Z M 108.972656 73.800781 " fill-opacity="1" fill-rule="nonzero"/><path fill="#ff914d" d="M 142.164062 36.992188 C 142.164062 38.683594 143.433594 40.054688 145 40.054688 C 146.566406 40.054688 147.839844 38.683594 147.839844 36.992188 C 147.839844 35.300781 146.566406 33.929688 145 33.929688 C 143.433594 33.929688 142.164062 35.300781 142.164062 36.992188 Z M 142.164062 36.992188 " fill-opacity="1" fill-rule="nonzero"/><path fill="#ff914d" d="M 123.792969 89.335938 C 123.792969 91.027344 125.0625 92.402344 126.632812 92.402344 C 128.199219 92.402344 129.46875 91.027344 129.46875 89.335938 C 129.46875 87.644531 128.199219 86.273438 126.632812 86.273438 C 125.0625 86.273438 123.792969 87.644531 123.792969 89.335938 Z M 123.792969 89.335938 " fill-opacity="1" fill-rule="nonzero"/><path fill="#ff914d" d="M 145 82.324219 C 145 84.015625 146.273438 85.386719 147.839844 85.386719 C 149.40625 85.386719 150.675781 84.015625 150.675781 82.324219 C 150.675781 80.632812 149.40625 79.257812 147.839844 79.257812 C 146.273438 79.257812 145 80.632812 145 82.324219 Z M 145 82.324219 " fill-opacity="1" fill-rule="nonzero"/><path fill="#ff914d" d="M 138.164062 120.445312 C 138.164062 120.851562 138.09375 121.242188 137.949219 121.617188 C 137.804688 121.992188 137.597656 122.324219 137.332031 122.613281 C 137.066406 122.898438 136.761719 123.121094 136.414062 123.277344 C 136.066406 123.433594 135.703125 123.511719 135.328125 123.511719 C 134.949219 123.511719 134.585938 123.433594 134.238281 123.277344 C 133.890625 123.121094 133.585938 122.898438 133.320312 122.613281 C 133.054688 122.324219 132.847656 121.992188 132.703125 121.617188 C 132.558594 121.242188 132.488281 120.851562 132.488281 120.445312 C 132.488281 120.039062 132.558594 119.648438 132.703125 119.273438 C 132.847656 118.898438 133.054688 118.566406 133.320312 118.28125 C 133.585938 117.992188 133.890625 117.769531 134.238281 117.613281 C 134.585938 117.460938 134.949219 117.382812 135.328125 117.382812 C 135.703125 117.382812 136.066406 117.460938 136.414062 117.613281 C 136.761719 117.769531 137.066406 117.992188 137.332031 118.28125 C 137.597656 118.566406 137.804688 118.898438 137.949219 119.273438 C 138.09375 119.648438 138.164062 120.039062 138.164062 120.445312 Z M 138.164062 120.445312 " fill-opacity="1" fill-rule="nonzero"/><path fill="#ff914d" d="M 154.292969 141.496094 C 154.292969 143.1875 155.566406 144.558594 157.132812 144.558594 C 158.699219 144.558594 159.96875 143.1875 159.96875 141.496094 C 159.96875 139.800781 158.699219 138.429688 157.132812 138.429688 C 155.566406 138.429688 154.292969 139.800781 154.292969 141.496094 Z M 154.292969 141.496094 " fill-opacity="1" fill-rule="nonzero"/><path fill="#ff914d" d="M 162.808594 118.789062 C 162.808594 119.195312 162.734375 119.585938 162.59375 119.960938 C 162.449219 120.335938 162.242188 120.667969 161.976562 120.957031 C 161.710938 121.242188 161.402344 121.464844 161.054688 121.621094 C 160.707031 121.773438 160.347656 121.851562 159.96875 121.851562 C 159.59375 121.851562 159.230469 121.773438 158.882812 121.621094 C 158.535156 121.464844 158.230469 121.242188 157.964844 120.957031 C 157.695312 120.667969 157.492188 120.335938 157.347656 119.960938 C 157.203125 119.585938 157.132812 119.195312 157.132812 118.789062 C 157.132812 118.382812 157.203125 117.992188 157.347656 117.617188 C 157.492188 117.242188 157.695312 116.910156 157.964844 116.621094 C 158.230469 116.335938 158.535156 116.113281 158.882812 115.957031 C 159.230469 115.800781 159.59375 115.726562 159.96875 115.726562 C 160.347656 115.726562 160.707031 115.800781 161.054688 115.957031 C 161.402344 116.113281 161.710938 116.335938 161.976562 116.621094 C 162.242188 116.910156 162.449219 117.242188 162.59375 117.617188 C 162.734375 117.992188 162.808594 118.382812 162.808594 118.789062 Z M 162.808594 118.789062 " fill-opacity="1" fill-rule="nonzero"/><path fill="#ff914d" d="M 79.375 294.585938 C 79.375 294.992188 79.304688 295.382812 79.160156 295.757812 C 79.015625 296.132812 78.808594 296.464844 78.542969 296.753906 C 78.277344 297.039062 77.972656 297.261719 77.625 297.417969 C 77.277344 297.570312 76.914062 297.648438 76.539062 297.648438 C 76.160156 297.648438 75.800781 297.570312 75.453125 297.417969 C 75.105469 297.261719 74.796875 297.039062 74.53125 296.753906 C 74.265625 296.464844 74.058594 296.132812 73.914062 295.757812 C 73.769531 295.382812 73.699219 294.992188 73.699219 294.585938 C 73.699219 294.179688 73.769531 293.789062 73.914062 293.414062 C 74.058594 293.039062 74.265625 292.707031 74.53125 292.417969 C 74.796875 292.132812 75.105469 291.910156 75.453125 291.753906 C 75.800781 291.597656 76.160156 291.519531 76.539062 291.519531 C 76.914062 291.519531 77.277344 291.597656 77.625 291.753906 C 77.972656 291.910156 78.277344 292.132812 78.542969 292.417969 C 78.808594 292.707031 79.015625 293.039062 79.160156 293.414062 C 79.304688 293.789062 79.375 294.179688 79.375 294.585938 Z M 79.375 294.585938 " fill-opacity="1" fill-rule="nonzero"/><path fill="#ff914d" d="M 201.394531 211.996094 C 201.335938 215.066406 200.890625 218.046875 200.09375 220.886719 L 210.710938 220.886719 C 211.300781 218.003906 211.628906 215.03125 211.671875 211.996094 Z M 201.394531 211.996094 " fill-opacity="1" fill-rule="nonzero"/><path fill="#ff914d" d="M 183.441406 165.878906 C 186.320312 162.117188 188.511719 157.816406 190 153.109375 L 178.90625 153.109375 C 174.1875 163.410156 165.488281 167.269531 162.796875 168.242188 C 162.296875 168.355469 161.800781 168.46875 161.304688 168.597656 C 161.109375 168.648438 160.925781 168.710938 160.742188 168.785156 C 156.761719 169.484375 150.800781 168.804688 146.847656 164.992188 C 142.964844 161.246094 141.777344 155.160156 143.316406 146.894531 C 143.875 143.894531 142.074219 140.96875 139.292969 140.367188 C 136.511719 139.765625 133.804688 141.710938 133.246094 144.710938 C 130.371094 160.144531 135.332031 168.753906 140.003906 173.257812 C 145.121094 178.199219 151.800781 180.144531 157.765625 180.144531 C 160.515625 180.144531 163.109375 179.726562 165.332031 179.003906 C 166.988281 178.675781 168.675781 178.492188 170.378906 178.457031 C 178.515625 178.300781 186.226562 181.570312 192.085938 187.667969 C 196.117188 191.867188 198.929688 197.058594 200.347656 202.75 L 210.898438 202.75 C 209.304688 194.003906 205.285156 186.003906 199.21875 179.6875 C 194.054688 174.308594 187.816406 170.578125 181.050781 168.714844 C 181.863281 167.835938 182.660156 166.886719 183.441406 165.871094 Z M 183.441406 165.878906 " fill-opacity="1" fill-rule="nonzero"/><path fill="#ff914d" d="M 185.984375 45.851562 L 194.449219 35.144531 C 193.648438 32.246094 192.632812 29.507812 191.390625 26.953125 L 184.011719 36.417969 C 184.976562 39.320312 185.636719 42.472656 185.984375 45.855469 Z M 185.984375 45.851562 " fill-opacity="1" fill-rule="nonzero"/><path fill="#ff914d" d="M 191.9375 143.875 C 192.203125 141.523438 192.328125 139.101562 192.289062 136.621094 C 192.167969 129.332031 190.410156 122.46875 187.390625 116.445312 L 179.6875 124.757812 C 181.121094 128.484375 181.945312 132.550781 182.019531 136.820312 C 182.0625 139.359375 181.902344 141.707031 181.585938 143.871094 L 191.941406 143.871094 Z M 191.9375 143.875 " fill-opacity="1" fill-rule="nonzero"/><g clip-path="url(#999a4b51c8)"><path fill="#ff914d" d="M 207.785156 230.128906 L 195.957031 230.128906 C 192.441406 235.597656 187.390625 239.917969 181.296875 242.292969 C 176.394531 238.054688 170.5625 235.292969 163.902344 234.101562 C 162.863281 223.664062 158.515625 214.03125 151.429688 206.652344 C 143.429688 198.328125 132.910156 193.878906 121.796875 194.074219 C 119.527344 194.121094 116.996094 194.433594 114.386719 195.0625 C 117.222656 187.480469 118.96875 179.265625 118.851562 172.414062 C 118.710938 163.824219 116.390625 155.660156 112.121094 148.558594 C 115.671875 142.742188 117.71875 135.992188 118.035156 129.007812 C 129.261719 108.734375 138.199219 106.773438 145.421875 105.183594 C 147.226562 104.78125 149.105469 104.554688 150.992188 104.523438 C 151.542969 104.515625 152.0625 104.519531 152.550781 104.535156 L 152.644531 104.535156 C 153.195312 104.554688 153.75 104.597656 154.292969 104.648438 C 154.332031 104.652344 154.375 104.65625 154.414062 104.660156 C 162.824219 105.507812 170.164062 109.980469 175.15625 116.582031 L 182.457031 108.707031 C 179.734375 105.289062 176.535156 102.324219 172.949219 99.941406 C 177.664062 97.125 181.960938 93.109375 185.609375 88 C 187.789062 84.957031 189.65625 81.632812 191.210938 78.085938 L 179.511719 78.085938 C 178.875 79.167969 178.199219 80.21875 177.480469 81.21875 C 171.878906 89.050781 164.429688 93.441406 156.511719 93.601562 C 156.03125 93.609375 155.566406 93.601562 155.128906 93.585938 C 155.007812 93.574219 154.894531 93.570312 154.78125 93.570312 C 154.164062 93.519531 153.542969 93.476562 152.929688 93.453125 L 152.832031 93.453125 C 152.1875 93.429688 151.507812 93.421875 150.808594 93.441406 C 148.285156 93.488281 145.777344 93.789062 143.363281 94.320312 C 134.761719 96.214844 125.625 99.367188 115.675781 113.066406 C 115.523438 112.636719 115.363281 112.203125 115.191406 111.777344 C 111.195312 101.6875 103.300781 93.8125 93.765625 90.238281 C 92.972656 87.625 92.546875 84.894531 92.5 82.09375 C 92.375 74.644531 94.949219 67.582031 99.742188 62.214844 C 104.539062 56.847656 110.980469 53.824219 117.886719 53.6875 C 119.125 53.664062 120.363281 53.734375 121.582031 53.898438 C 128.597656 54.839844 135.027344 58.929688 139.230469 65.117188 C 140.910156 67.585938 144.121094 68.121094 146.410156 66.3125 C 148.699219 64.503906 149.191406 61.035156 147.515625 58.566406 C 143.117188 52.085938 136.964844 47.257812 130.035156 44.691406 C 129.457031 37.050781 132.398438 31.152344 135.171875 27.390625 C 140.203125 20.5625 148.101562 16.054688 155.289062 15.914062 C 163.953125 15.734375 171.453125 18.667969 176.953125 24.371094 C 177.933594 25.386719 178.832031 26.492188 179.664062 27.660156 L 186.398438 19.023438 C 185.660156 18.101562 184.886719 17.214844 184.070312 16.367188 C 176.667969 8.695312 166.371094 4.589844 155.101562 4.808594 C 144.972656 5.007812 133.992188 11.15625 127.128906 20.472656 C 122.277344 27.058594 119.742188 34.71875 119.699219 42.613281 C 119.039062 42.589844 118.371094 42.574219 117.703125 42.589844 C 108.054688 42.777344 99.050781 47.011719 92.351562 54.507812 C 85.648438 62.007812 82.058594 71.871094 82.230469 82.285156 C 82.261719 84.25 82.429688 86.191406 82.726562 88.105469 C 82.253906 88.09375 81.78125 88.089844 81.3125 88.101562 C 71.660156 88.285156 62.65625 92.523438 55.953125 100.019531 C 49.257812 107.519531 45.660156 117.386719 45.835938 127.800781 C 45.933594 133.5 47.136719 138.96875 49.417969 144.046875 C 49.484375 144.207031 49.558594 144.355469 49.632812 144.511719 C 49.246094 144.535156 48.859375 144.5625 48.46875 144.597656 C 28.582031 146.457031 19.96875 164.386719 20.253906 181.324219 C 20.414062 191.109375 24.058594 200.285156 30.507812 207.15625 C 33.351562 210.195312 36.613281 212.628906 40.132812 214.410156 C 31.378906 222.089844 25.941406 233.925781 25.75 247.117188 C 25.503906 263.832031 31.507812 276.757812 42.230469 282.578125 C 43.628906 283.335938 45.078125 283.953125 46.554688 284.417969 C 46.582031 291.019531 48.484375 301.972656 59.238281 310.15625 C 65.136719 314.644531 70.828125 315.976562 75.507812 315.976562 C 77.535156 315.976562 79.371094 315.730469 80.957031 315.375 C 81.980469 315.148438 82.941406 314.867188 83.824219 314.5625 C 86.394531 324.785156 91.433594 333.738281 98.203125 339.726562 C 104.535156 345.316406 112.117188 348.195312 120.394531 348.195312 C 122.320312 348.195312 124.28125 348.039062 126.273438 347.730469 C 128.453125 347.386719 130.554688 346.800781 132.566406 346.015625 C 135.789062 356.984375 143.234375 363.0625 144.597656 364.101562 C 145.84375 365.132812 152.390625 370.171875 161.527344 370.171875 C 165.882812 370.171875 170.828125 369.023438 176.074219 365.75 C 189.042969 357.664062 189.679688 346.058594 188.90625 339.855469 C 188.78125 338.847656 188.601562 337.890625 188.402344 336.988281 L 186.683594 336.988281 L 179.417969 321.855469 C 174.996094 327.980469 168.40625 332.605469 158.570312 332.792969 C 155.734375 332.851562 153.476562 335.378906 153.53125 338.441406 C 153.578125 341.464844 155.867188 343.882812 158.664062 343.882812 L 158.757812 343.882812 C 165.960938 343.746094 172.453125 341.75 178.011719 338.035156 C 178.683594 340.253906 179.183594 343.199219 178.605469 346.179688 C 177.835938 350.105469 175.257812 353.457031 170.941406 356.152344 C 160.207031 362.847656 151.472656 355.816406 150.886719 355.328125 C 150.734375 355.1875 150.707031 355.164062 150.527344 355.042969 C 150.222656 354.816406 143.640625 349.835938 141.824219 340.441406 C 148.980469 334.292969 153.535156 325.097656 153.425781 315.3125 C 153.34375 308.355469 149.933594 299.023438 142.5 293.84375 C 137.339844 290.253906 128.328125 287.324219 114.675781 293.769531 C 112.078125 294.996094 110.894531 298.265625 112.03125 301.070312 C 113.167969 303.882812 116.195312 305.160156 118.792969 303.933594 C 124.023438 301.464844 131.417969 299.328125 136.929688 303.167969 C 141.425781 306.300781 143.113281 312.234375 143.152344 315.460938 C 143.277344 325.769531 135.214844 335.125 124.800781 336.757812 C 117.0625 337.972656 110.308594 336.085938 104.722656 331.148438 C 97.527344 324.792969 92.867188 313.765625 92.261719 301.644531 C 91.636719 289.285156 94.203125 277.964844 99.882812 268.007812 C 104.136719 260.542969 108.667969 256.640625 108.785156 256.539062 C 108.902344 256.4375 109.011719 256.335938 109.117188 256.230469 C 114.300781 257.707031 119.714844 257.273438 124.265625 254.792969 C 130.304688 251.503906 133.800781 245.109375 133.851562 237.257812 C 133.875 234.199219 131.589844 231.699219 128.753906 231.671875 L 128.714844 231.671875 C 125.898438 231.671875 123.597656 234.132812 123.578125 237.175781 C 123.554688 240.882812 122.226562 243.476562 119.632812 244.890625 C 116.023438 246.859375 110.746094 246.058594 106.789062 242.953125 C 103.578125 240.433594 98.480469 234.25 100.363281 221.125 C 100.769531 218.285156 101.863281 215.875 103.378906 213.855469 C 104.03125 213.195312 104.679688 212.476562 105.3125 211.703125 C 110.054688 207.207031 117.085938 205.265625 121.980469 205.171875 C 130.347656 205.007812 138.273438 208.371094 144.296875 214.644531 C 150.316406 220.917969 153.71875 229.34375 153.867188 238.375 C 154.058594 249.710938 149.007812 260.339844 140.359375 266.808594 C 138.027344 268.550781 137.449219 272.003906 139.0625 274.523438 C 140.0625 276.078125 141.660156 276.910156 143.289062 276.910156 C 144.296875 276.910156 145.316406 276.585938 146.210938 275.921875 C 155.835938 268.722656 162.097656 257.632812 163.722656 245.359375 C 173.226562 247.582031 180.125 254.28125 184.269531 265.316406 C 185.460938 268.496094 186.3125 271.714844 186.921875 274.789062 L 197.398438 274.789062 C 196.664062 270.46875 195.53125 265.796875 193.792969 261.15625 C 192.375 257.378906 190.675781 253.976562 188.714844 250.9375 C 197.214844 246.5 203.871094 239.09375 207.777344 230.140625 Z M 82 302.238281 C 82.019531 302.648438 82.046875 303.0625 82.074219 303.472656 C 78.675781 304.972656 72.230469 306.46875 65.15625 301.09375 C 58.558594 296.074219 57.050781 289.539062 56.84375 285.332031 C 61.136719 284.765625 65.273438 283.015625 68.761719 280.128906 C 76.773438 273.5 79.972656 262.425781 77.546875 249.75 C 76.972656 246.753906 74.253906 244.820312 71.476562 245.445312 C 68.699219 246.0625 66.910156 248.996094 67.488281 251.996094 C 69.109375 260.46875 67.34375 267.332031 62.511719 271.332031 C 58.148438 274.949219 52 275.472656 46.847656 272.675781 C 39.789062 268.839844 35.84375 259.585938 36.023438 247.292969 C 36.230469 233.316406 44.261719 221.414062 56.011719 217.671875 C 58.398438 216.914062 60.894531 216.503906 63.421875 216.449219 L 63.648438 216.449219 C 63.808594 216.445312 63.972656 216.445312 64.128906 216.445312 C 64.230469 216.449219 64.328125 216.449219 64.425781 216.449219 L 64.796875 216.449219 C 69.039062 216.484375 80.316406 216.570312 88.742188 226.929688 C 89.039062 227.296875 89.371094 227.605469 89.730469 227.863281 C 90.039062 237.332031 93.394531 245.375 99.402344 250.78125 C 93.316406 257.34375 80.605469 274.511719 82 302.242188 Z M 98.144531 203.699219 C 95.226562 206.539062 92.832031 210.085938 91.386719 214.417969 C 80.898438 205.488281 69.136719 205.394531 64.863281 205.363281 L 64.378906 205.363281 C 64.378906 205.363281 64.355469 205.355469 64.34375 205.355469 C 64.082031 205.355469 63.816406 205.355469 63.550781 205.359375 C 63.445312 205.359375 63.347656 205.359375 63.230469 205.363281 C 60.066406 205.421875 56.945312 205.902344 53.929688 206.785156 C 41.195312 206.324219 30.753906 194.960938 30.523438 181.125 C 30.339844 170.203125 35.167969 156.96875 49.359375 155.640625 C 52.597656 155.335938 55.503906 155.605469 58.050781 156.292969 C 58.953125 157.019531 60.019531 157.378906 61.082031 157.382812 C 66.078125 159.675781 69.160156 163.785156 69.90625 168.082031 C 70.886719 173.703125 67.820312 178.207031 61.714844 180.136719 C 58.992188 180.996094 57.429688 184.074219 58.226562 187.011719 C 59.027344 189.953125 61.878906 191.640625 64.601562 190.777344 C 77.507812 186.707031 81.636719 175.421875 80.007812 166.039062 C 78.582031 157.824219 72.6875 149.960938 63.300781 146.40625 C 63.246094 146.34375 63.1875 146.28125 63.136719 146.21875 C 63.117188 146.199219 63.097656 146.171875 63.074219 146.152344 C 62.914062 145.964844 62.75 145.769531 62.582031 145.570312 C 61.011719 143.652344 59.691406 141.519531 58.667969 139.21875 C 57.039062 135.589844 56.171875 131.675781 56.109375 127.597656 C 55.984375 120.144531 58.554688 113.078125 63.355469 107.714844 C 68.148438 102.347656 74.589844 99.320312 81.5 99.183594 C 83.886719 99.136719 86.257812 99.4375 88.546875 100.089844 C 96.199219 102.261719 102.628906 108.253906 105.753906 116.132812 C 107.066406 119.429688 107.757812 122.949219 107.816406 126.589844 C 107.894531 131.132812 106.941406 135.585938 105.085938 139.582031 C 100.460938 135.027344 94.972656 131.640625 88.914062 129.664062 C 86.199219 128.78125 83.332031 130.4375 82.511719 133.367188 C 81.6875 136.300781 83.226562 139.394531 85.945312 140.28125 C 92.207031 142.324219 97.671875 146.351562 101.75 151.933594 C 101.757812 151.941406 101.761719 151.949219 101.769531 151.957031 C 106.101562 157.890625 108.460938 165.035156 108.585938 172.609375 C 108.742188 182.109375 103.824219 196.3125 98.144531 203.695312 Z M 98.144531 203.699219 " fill-opacity="1" fill-rule="nonzero"/></g><path fill="#ff914d" d="M 185.640625 60.214844 C 185.199219 63.195312 184.523438 66.082031 183.628906 68.839844 L 190.621094 68.839844 L 195.847656 61.570312 C 196.371094 57.929688 196.609375 54.191406 196.546875 50.402344 C 196.527344 49.222656 196.472656 48.0625 196.398438 46.917969 L 185.886719 60.214844 Z M 185.640625 60.214844 " fill-opacity="1" fill-rule="nonzero"/><path fill="#ff914d" d="M 195.433594 284.019531 L 188.167969 284.019531 C 188.53125 288.921875 188.355469 292.464844 188.308594 293.191406 C 188.070312 297.078125 187.238281 304.703125 184.4375 312.234375 L 190.296875 324.441406 C 196.152344 314.160156 198.035156 302.351562 198.558594 293.933594 C 198.609375 293.082031 198.699219 291.15625 198.660156 288.492188 Z M 195.433594 284.019531 " fill-opacity="1" fill-rule="nonzero"/></svg>