<svg xmlns="http://www.w3.org/2000/svg" xmlns:xlink="http://www.w3.org/1999/xlink" width="6912" zoomAndPan="magnify" viewBox="0 0 5184 2592.000001" height="10" preserveAspectRatio="xMidYMid meet" version="1.0"><defs><filter x="0%" y="0%" width="100%" height="100%" id="002c33b7e1"><feColorMatrix values="0 0 0 0 1 0 0 0 0 1 0 0 0 0 1 0 0 0 1 0" color-interpolation-filters="sRGB"/></filter><g/><clipPath id="6a58820052"><path d="M 1 259.101562 L 1024 259.101562 L 1024 2206.847656 L 1 2206.847656 Z M 1 259.101562 " clip-rule="nonzero"/></clipPath><mask id="b14c320c63"><g filter="url(#002c33b7e1)"><rect x="-518.4" width="6220.8" fill="#000000" y="-259.2" height="3110.400001" fill-opacity="0.3"/></g></mask><clipPath id="68e2e74dd3"><path d="M 0 0.339844 L 1021 0.339844 L 1021 1947.847656 L 0 1947.847656 Z M 0 0.339844 " clip-rule="nonzero"/></clipPath><clipPath id="62cd3901a6"><rect x="0" width="1023" y="0" height="1948"/></clipPath><mask id="b804b49ba4"><g filter="url(#002c33b7e1)"><rect x="-518.4" width="6220.8" fill="#000000" y="-259.2" height="3110.400001" fill-opacity="0.2"/></g></mask><clipPath id="a0f0325b41"><rect x="0" width="911" y="0" height="1762"/></clipPath><clipPath id="ca28a52a08"><path d="M 736 321 L 1786.0625 321 L 1786.0625 2128 L 736 2128 Z M 736 321 " clip-rule="nonzero"/></clipPath><clipPath id="f0e9f49e85"><path d="M 2 259.101562 L 1002 259.101562 L 1002 2206.847656 L 2 2206.847656 Z M 2 259.101562 " clip-rule="nonzero"/></clipPath></defs><g clip-path="url(#6a58820052)"><g mask="url(#b14c320c63)"><g transform="matrix(1, 0, 0, 1, 1, 259)"><g clip-path="url(#62cd3901a6)"><g clip-path="url(#68e2e74dd3)"><path fill="#ff914d" d="M 897.988281 1312.398438 C 908.429688 1328.5625 917.484375 1346.710938 925.039062 1366.835938 C 954.609375 1445.660156 951.367188 1526.222656 950.425781 1541.570312 C 947.371094 1590.695312 935.648438 1661.445312 897.003906 1719.4375 C 893.0625 1725.363281 888.914062 1730.992188 884.601562 1736.339844 C 885.230469 1737.65625 885.839844 1739.046875 886.46875 1740.507812 C 886.730469 1741.082031 886.96875 1741.675781 887.210938 1742.304688 C 891.449219 1752.46875 896.671875 1767.894531 898.96875 1786.371094 C 903.117188 1819.402344 899.710938 1881.285156 830.570312 1924.410156 C 802.628906 1941.832031 776.261719 1947.921875 753.027344 1947.921875 C 704.328125 1947.921875 669.445312 1921.09375 662.796875 1915.574219 C 655.558594 1910.058594 615.859375 1877.636719 598.695312 1819.183594 C 587.957031 1823.367188 576.734375 1826.496094 565.144531 1828.308594 C 554.515625 1829.976562 544.054688 1830.808594 533.816406 1830.808594 C 489.691406 1830.808594 449.269531 1815.460938 415.535156 1785.648438 C 379.449219 1753.765625 352.582031 1706.03125 338.898438 1651.539062 C 334.175781 1653.167969 329.066406 1654.667969 323.585938 1655.871094 C 315.160156 1657.757812 305.347656 1659.09375 294.550781 1659.09375 C 269.59375 1659.09375 239.28125 1651.964844 207.839844 1628.042969 C 150.515625 1584.4375 140.386719 1526.035156 140.222656 1490.855469 C 132.371094 1488.375 124.648438 1485.117188 117.167969 1481.0625 C 60.027344 1450.011719 28.015625 1381.132812 29.328125 1292.03125 C 30.367188 1221.726562 59.378906 1158.644531 106.023438 1117.703125 C 87.226562 1108.207031 69.878906 1095.226562 54.714844 1079.0625 C 20.332031 1042.4375 0.90625 993.535156 0.0351562 941.375 C -1.464844 851.113281 44.4375 755.550781 150.441406 745.625 C 152.535156 745.421875 154.589844 745.3125 156.644531 745.179688 C 156.257812 744.347656 155.867188 743.550781 155.496094 742.71875 C 143.332031 715.648438 136.90625 686.484375 136.40625 656.101562 C 135.5 600.570312 154.644531 548.003906 190.363281 508.027344 C 226.0625 468.070312 274.074219 445.519531 325.492188 444.5 C 328.011719 444.464844 330.527344 444.480469 333.046875 444.519531 C 331.453125 434.335938 330.582031 423.984375 330.398438 413.503906 C 329.472656 358.011719 348.636719 305.425781 384.335938 265.453125 C 420.054688 225.492188 468.046875 202.941406 519.484375 201.921875 C 523.019531 201.867188 526.574219 201.921875 530.113281 202.089844 C 530.335938 160.019531 543.851562 119.175781 569.699219 84.070312 C 606.269531 34.390625 664.796875 1.617188 718.789062 0.582031 C 778.875 -0.625 833.738281 21.246094 873.195312 62.089844 C 883.175781 72.441406 892.082031 83.847656 899.855469 96.214844 C 925.09375 136.210938 938.742188 186.332031 939.703125 243.566406 C 940.945312 318.535156 920.242188 389.695312 881.414062 443.945312 C 861.9375 471.144531 839.050781 492.585938 813.90625 507.585938 C 875.0625 548.246094 915.632812 620.605469 917.003906 703.113281 C 918.003906 763.476562 901.707031 817.414062 869.863281 859.054688 C 865.695312 864.5 861.457031 869.535156 857.105469 874.21875 C 893.191406 884.125 926.425781 904.03125 953.960938 932.675781 C 995.714844 976.148438 1019.285156 1034.585938 1020.324219 1097.207031 C 1021.878906 1189.453125 973.53125 1272.90625 898.003906 1312.398438 Z M 897.988281 1312.398438 " fill-opacity="1" fill-rule="nonzero"/></g></g></g></g></g><g mask="url(#b804b49ba4)"><g transform="matrix(1, 0, 0, 1, 813, 335)"><g clip-path="url(#a0f0325b41)"><path fill="#1f628e" d="M 908.464844 531.921875 L 898.691406 1076.125 L 870.730469 1084.367188 L 866.527344 1380.640625 L 579.957031 1724.722656 L 470.859375 1724.722656 L 472.265625 1759.4375 L 159.125 1753.382812 L 153.496094 1670.230469 L 86.394531 1666.304688 L 75.191406 1666.304688 C 74.933594 1665.675781 74.691406 1665.082031 74.453125 1664.507812 C 73.820312 1663.046875 73.210938 1661.675781 72.582031 1660.339844 C 76.914062 1654.992188 81.042969 1649.363281 84.988281 1643.4375 C 123.628906 1585.425781 135.371094 1514.675781 138.40625 1465.570312 C 139.351562 1450.222656 142.589844 1369.660156 113.019531 1290.835938 C 105.464844 1270.710938 96.410156 1252.566406 85.96875 1236.398438 C 161.496094 1196.925781 209.820312 1113.453125 208.285156 1021.207031 C 207.25 958.585938 183.675781 900.148438 141.925781 856.675781 C 114.390625 828.03125 81.15625 808.125 45.066406 798.21875 C 49.417969 793.535156 53.660156 788.480469 57.824219 783.054688 C 89.671875 741.414062 105.984375 687.476562 104.964844 627.113281 C 103.597656 544.625 63.046875 472.265625 1.871094 431.585938 C 27.015625 416.585938 49.917969 395.164062 69.378906 367.945312 C 108.207031 313.695312 128.90625 242.519531 127.667969 167.566406 C 126.703125 110.332031 113.058594 60.210938 87.820312 20.214844 L 106.113281 1.347656 L 486.488281 1.347656 L 525.390625 42.453125 L 599.472656 58.691406 L 795.167969 275.847656 L 795.167969 515.59375 L 908.449219 531.921875 Z M 908.464844 531.921875 " fill-opacity="1" fill-rule="nonzero"/></g></g></g><path fill="#1f628e" d="M 1067.019531 1305.640625 C 1054.816406 1305.640625 1044.300781 1313.269531 1039.246094 1324.324219 L 850.253906 1324.324219 C 845.199219 1313.269531 834.679688 1305.640625 822.480469 1305.640625 C 805.371094 1305.640625 791.484375 1320.621094 791.484375 1339.097656 C 791.484375 1357.578125 805.351562 1372.558594 822.480469 1372.558594 C 834.679688 1372.558594 845.199219 1364.929688 850.253906 1353.875 L 1039.246094 1353.875 C 1044.300781 1364.929688 1054.816406 1372.558594 1067.019531 1372.558594 C 1084.128906 1372.558594 1098.015625 1357.578125 1098.015625 1339.097656 C 1098.015625 1320.621094 1084.148438 1305.640625 1067.019531 1305.640625 Z M 1067.019531 1305.640625 " fill-opacity="1" fill-rule="nonzero"/><path fill="#1f628e" d="M 1011.121094 1850.492188 C 1028.230469 1850.492188 1042.117188 1835.511719 1042.117188 1817.03125 C 1042.117188 1798.554688 1028.246094 1783.574219 1011.121094 1783.574219 C 1010.136719 1783.574219 1009.175781 1783.628906 1008.210938 1783.742188 L 953.71875 1708.214844 L 850.273438 1708.214844 C 845.214844 1697.160156 834.699219 1689.53125 822.496094 1689.53125 C 805.390625 1689.53125 791.5 1704.511719 791.5 1722.988281 C 791.5 1741.46875 805.371094 1756.449219 822.496094 1756.449219 C 834.699219 1756.449219 845.214844 1748.820312 850.273438 1737.765625 L 940.351562 1737.765625 L 984.828125 1799.40625 C 981.882812 1804.535156 980.140625 1810.550781 980.140625 1817.03125 C 980.140625 1835.511719 994.011719 1850.492188 1011.136719 1850.492188 Z M 1011.121094 1850.492188 " fill-opacity="1" fill-rule="nonzero"/><path fill="#1f628e" d="M 1078.777344 1707.992188 L 1159.46875 1707.992188 L 1224.164062 1777.816406 L 1338.113281 1777.816406 L 1406.65625 1703.824219 L 1406.65625 1667.128906 L 1482.871094 1667.128906 L 1482.871094 1465.542969 L 1361.441406 1465.542969 L 1303.0625 1528.554688 L 1303.0625 1547.699219 L 1226.3125 1547.699219 L 1161.617188 1617.523438 L 1035.136719 1617.523438 C 1030.082031 1606.46875 1019.5625 1598.839844 1007.359375 1598.839844 C 990.253906 1598.839844 976.367188 1613.820312 976.367188 1632.300781 C 976.367188 1650.777344 990.234375 1665.757812 1007.359375 1665.757812 C 1019.5625 1665.757812 1030.082031 1658.128906 1035.136719 1647.074219 L 1172.96875 1647.074219 L 1237.664062 1577.25 L 1303.0625 1577.25 L 1303.0625 1667.128906 L 1379.273438 1667.128906 L 1379.273438 1691.585938 L 1326.761719 1748.265625 L 1235.496094 1748.265625 L 1170.800781 1678.441406 L 1075.371094 1678.441406 C 1069.816406 1669.421875 1060.335938 1663.480469 1049.558594 1663.480469 C 1032.449219 1663.480469 1018.5625 1678.460938 1018.5625 1696.9375 C 1018.5625 1715.417969 1032.433594 1730.394531 1049.558594 1730.394531 C 1063.074219 1730.394531 1074.554688 1721.027344 1078.777344 1707.992188 Z M 1330.445312 1540.792969 L 1372.792969 1495.09375 L 1455.484375 1495.09375 L 1455.484375 1637.574219 L 1330.445312 1637.574219 Z M 1330.445312 1540.792969 " fill-opacity="1" fill-rule="nonzero"/><path fill="#1f628e" d="M 1121.769531 1469.191406 C 1138.878906 1469.191406 1152.765625 1454.210938 1152.765625 1435.734375 C 1152.765625 1417.253906 1138.898438 1402.273438 1121.769531 1402.273438 C 1109.570312 1402.273438 1099.050781 1409.902344 1093.996094 1420.957031 L 850.253906 1420.957031 C 845.199219 1409.902344 834.679688 1402.273438 822.480469 1402.273438 C 805.371094 1402.273438 791.484375 1417.253906 791.484375 1435.734375 C 791.484375 1454.210938 805.351562 1469.191406 822.480469 1469.191406 C 834.679688 1469.191406 845.199219 1461.5625 850.253906 1450.507812 L 1093.996094 1450.507812 C 1099.050781 1461.5625 1109.570312 1469.191406 1121.769531 1469.191406 Z M 1121.769531 1469.191406 " fill-opacity="1" fill-rule="nonzero"/><path fill="#1f628e" d="M 828.589844 1040.027344 L 948.425781 1040.027344 C 953.480469 1051.082031 963.996094 1058.710938 976.199219 1058.710938 C 993.308594 1058.710938 1007.195312 1043.730469 1007.195312 1025.253906 C 1007.195312 1006.773438 993.324219 991.792969 976.199219 991.792969 C 963.996094 991.792969 953.480469 999.421875 948.425781 1010.476562 L 828.589844 1010.476562 C 823.535156 999.421875 813.015625 991.792969 800.816406 991.792969 C 783.707031 991.792969 769.820312 1006.773438 769.820312 1025.253906 C 769.820312 1043.730469 783.6875 1058.710938 800.816406 1058.710938 C 813.015625 1058.710938 823.535156 1051.082031 828.589844 1040.027344 Z M 828.589844 1040.027344 " fill-opacity="1" fill-rule="nonzero"/><path fill="#1f628e" d="M 792.390625 640.101562 L 928.09375 640.101562 L 1018.265625 514.695312 L 1073.519531 514.695312 C 1078.574219 525.746094 1089.089844 533.375 1101.292969 533.375 C 1118.402344 533.375 1132.289062 518.398438 1132.289062 499.917969 C 1132.289062 481.4375 1118.421875 466.460938 1101.292969 466.460938 C 1089.089844 466.460938 1078.574219 474.085938 1073.519531 485.140625 L 1004.863281 485.140625 L 914.6875 610.550781 L 797.742188 610.550781 C 794.074219 596.496094 782.132812 586.164062 767.929688 586.164062 C 750.824219 586.164062 736.933594 601.144531 736.933594 619.625 C 736.933594 638.101562 750.804688 653.082031 767.929688 653.082031 C 777.894531 653.082031 786.726562 647.988281 792.390625 640.101562 Z M 792.390625 640.101562 " fill-opacity="1" fill-rule="nonzero"/><path fill="#1f628e" d="M 1552.175781 912.304688 L 1664.214844 912.304688 L 1664.214844 1359.390625 L 1552.175781 1359.390625 Z M 1552.175781 912.304688 " fill-opacity="1" fill-rule="nonzero"/><g clip-path="url(#ca28a52a08)"><path fill="#1f628e" d="M 1755.332031 910.933594 L 1755.332031 896.160156 L 1786.144531 896.160156 L 1786.144531 866.609375 L 1755.332031 866.609375 L 1755.332031 851.832031 L 1726.390625 851.832031 L 1726.390625 841 L 1621.886719 841 L 1621.886719 603.347656 L 1418.859375 377.5625 L 1347.628906 370.472656 L 1306.394531 321.351562 L 910.335938 321.351562 L 832.921875 420.6875 L 800.757812 420.152344 C 796.445312 407.265625 785.058594 398.042969 771.632812 398.042969 C 754.523438 398.042969 740.636719 413.023438 740.636719 431.5 C 740.636719 449.980469 754.507812 464.960938 771.632812 464.960938 C 782.539062 464.960938 792.113281 458.867188 797.628906 449.664062 L 845.476562 450.480469 L 923.078125 350.917969 L 1294.246094 350.917969 L 1334.5 398.859375 L 1406.25 406.003906 L 1594.484375 615.347656 L 1594.484375 841.019531 L 1552.136719 841.019531 L 1554.378906 644.546875 L 1385.699219 457.847656 L 1316.746094 457.847656 L 1267.121094 388.597656 L 968.3125 388.597656 L 868.121094 515.339844 L 797.871094 515.339844 C 794.410156 500.9375 782.335938 490.289062 767.914062 490.289062 C 750.804688 490.289062 736.917969 505.269531 736.917969 523.746094 C 736.917969 542.226562 750.785156 557.207031 767.914062 557.207031 C 777.597656 557.207031 786.226562 552.410156 791.910156 544.910156 L 880.75 544.910156 L 980.9375 418.167969 L 1253.679688 418.167969 L 1303.300781 487.417969 L 1374.164062 487.417969 L 1526.863281 656.433594 L 1524.769531 841.039062 L 1490.015625 841.039062 L 1490.015625 851.871094 L 1461.078125 851.871094 L 1461.078125 866.644531 L 1255.917969 866.644531 L 1139.527344 741.015625 L 946.480469 741.015625 L 812.371094 885.773438 C 808.796875 884.214844 804.90625 883.347656 800.816406 883.347656 C 783.707031 883.347656 769.820312 898.324219 769.820312 916.804688 C 769.820312 935.285156 783.6875 950.261719 800.816406 950.261719 C 817.941406 950.261719 831.8125 935.285156 831.8125 916.804688 C 831.8125 913.695312 831.386719 910.695312 830.644531 907.84375 L 957.8125 770.585938 L 1128.179688 770.585938 L 1244.570312 896.214844 L 1461.058594 896.214844 L 1461.058594 910.992188 L 1490 910.992188 L 1490 952.632812 L 1461.058594 952.632812 L 1461.058594 967.410156 L 1219.386719 967.410156 L 1154.691406 897.585938 L 1016.859375 897.585938 C 1011.804688 886.53125 1001.289062 878.902344 989.085938 878.902344 C 971.976562 878.902344 958.089844 893.882812 958.089844 912.359375 C 958.089844 930.839844 971.957031 945.820312 989.085938 945.820312 C 1001.289062 945.820312 1011.804688 938.191406 1016.859375 927.136719 L 1143.34375 927.136719 L 1208.035156 996.960938 L 1461.039062 996.960938 L 1461.039062 1011.734375 L 1489.980469 1011.734375 L 1489.980469 1053.378906 L 1461.039062 1053.378906 L 1461.039062 1068.15625 L 1182.875 1068.15625 L 1118.179688 998.332031 L 1083.722656 998.332031 C 1078.667969 987.277344 1068.148438 979.648438 1055.945312 979.648438 C 1038.839844 979.648438 1024.953125 994.628906 1024.953125 1013.105469 C 1024.953125 1031.585938 1038.820312 1046.566406 1055.945312 1046.566406 C 1068.148438 1046.566406 1078.667969 1038.9375 1083.722656 1027.882812 L 1106.828125 1027.882812 L 1171.523438 1097.707031 L 1461.039062 1097.707031 L 1461.039062 1112.480469 L 1489.980469 1112.480469 L 1489.980469 1154.125 L 1461.039062 1154.125 L 1461.039062 1164.253906 L 1135.398438 1164.253906 L 1135.398438 1123.015625 L 1114.660156 1123.015625 L 1114.660156 1090.335938 L 1087.277344 1090.335938 L 1087.277344 1123.015625 L 1068.167969 1123.015625 L 1068.167969 1090.335938 L 1040.78125 1090.335938 L 1040.78125 1123.015625 L 1026.449219 1123.015625 L 1026.449219 1138.644531 L 997.308594 1138.644531 L 997.308594 1168.195312 L 1026.449219 1168.195312 L 1026.449219 1188.824219 L 997.308594 1188.824219 L 997.308594 1218.375 L 1026.449219 1218.375 L 1026.449219 1235.039062 L 1040.78125 1235.039062 L 1040.78125 1266.257812 L 1068.167969 1266.257812 L 1068.167969 1235.039062 L 1087.277344 1235.039062 L 1087.277344 1266.257812 L 1114.660156 1266.257812 L 1114.660156 1235.039062 L 1135.398438 1235.039062 L 1135.398438 1193.804688 L 1461.039062 1193.804688 L 1461.039062 1213.226562 L 1489.980469 1213.226562 L 1489.980469 1254.871094 L 1461.039062 1254.871094 L 1461.039062 1271.21875 L 1273.75 1271.21875 L 1209.054688 1341.042969 L 1185.949219 1341.042969 C 1180.894531 1329.988281 1170.375 1322.359375 1158.171875 1322.359375 C 1141.066406 1322.359375 1127.179688 1337.339844 1127.179688 1355.820312 C 1127.179688 1374.296875 1141.046875 1389.277344 1158.171875 1389.277344 C 1170.375 1389.277344 1180.894531 1381.648438 1185.949219 1370.59375 L 1220.40625 1370.59375 L 1285.101562 1300.769531 L 1461.058594 1300.769531 L 1461.058594 1313.972656 L 1490 1313.972656 L 1490 1355.613281 L 1461.058594 1355.613281 L 1461.058594 1370.390625 L 1318.875 1370.390625 L 1183.539062 1516.777344 L 1094.773438 1516.777344 C 1089.71875 1505.722656 1079.203125 1498.09375 1067 1498.09375 C 1049.890625 1498.09375 1036.003906 1513.074219 1036.003906 1531.554688 C 1036.003906 1550.03125 1049.875 1565.011719 1067 1565.011719 C 1079.203125 1565.011719 1089.71875 1557.382812 1094.773438 1546.328125 L 1194.890625 1546.328125 L 1330.222656 1399.941406 L 1461.039062 1399.941406 L 1461.039062 1414.71875 L 1489.980469 1414.71875 L 1489.980469 1430.714844 L 1524.476562 1430.714844 L 1524.476562 1660.535156 L 1403.84375 1801.238281 L 1340.425781 1801.238281 L 1316.910156 1829.253906 L 1202.890625 1829.253906 L 1132.640625 1753.429688 L 1115.847656 1753.429688 C 1110.996094 1741.800781 1100.179688 1733.671875 1087.589844 1733.671875 C 1070.480469 1733.671875 1056.59375 1748.652344 1056.59375 1767.132812 C 1056.59375 1785.609375 1070.464844 1800.589844 1087.589844 1800.589844 C 1099.386719 1800.589844 1109.644531 1793.460938 1114.882812 1782.980469 L 1121.289062 1782.980469 L 1191.539062 1858.804688 L 1329.039062 1858.804688 L 1352.554688 1830.789062 L 1415.785156 1830.789062 L 1551.824219 1672.125 L 1551.824219 1430.734375 L 1594.445312 1430.734375 L 1594.445312 1689.828125 L 1335.554688 1990.230469 L 1299.433594 1990.230469 L 1299.433594 1903.207031 L 1282.082031 1903.207031 L 1282.082031 1882.46875 L 1254.699219 1882.46875 L 1254.699219 1903.207031 L 1225.238281 1903.207031 L 1225.238281 1882.46875 L 1197.851562 1882.46875 L 1197.851562 1903.207031 L 1168.394531 1903.207031 L 1168.394531 1882.46875 L 1141.007812 1882.46875 L 1141.007812 1903.207031 L 1111.550781 1903.207031 L 1111.550781 1882.46875 L 1084.164062 1882.46875 L 1084.164062 1903.207031 L 1054.707031 1903.207031 L 1054.707031 1882.46875 L 1027.320312 1882.46875 L 1027.320312 1903.207031 L 997.863281 1903.207031 L 997.863281 1882.46875 L 970.476562 1882.46875 L 970.476562 1903.207031 L 956.035156 1903.207031 L 956.035156 1990.546875 L 911.28125 1990.546875 L 847.273438 1857.25 C 851.066406 1851.695312 853.328125 1844.863281 853.328125 1837.4375 C 853.328125 1818.957031 839.457031 1803.980469 822.332031 1803.980469 C 805.203125 1803.980469 791.335938 1818.957031 791.335938 1837.4375 C 791.335938 1855.917969 805.203125 1870.894531 822.332031 1870.894531 C 822.535156 1870.894531 822.757812 1870.859375 822.960938 1870.859375 L 894.617188 2020.097656 L 956.015625 2020.097656 L 956.015625 2106.789062 L 970.460938 2106.789062 L 970.460938 2127.527344 L 997.84375 2127.527344 L 997.84375 2106.789062 L 1027.304688 2106.789062 L 1027.304688 2127.527344 L 1054.6875 2127.527344 L 1054.6875 2106.789062 L 1084.148438 2106.789062 L 1084.148438 2127.527344 L 1111.53125 2127.527344 L 1111.53125 2106.789062 L 1140.992188 2106.789062 L 1140.992188 2127.527344 L 1168.375 2127.527344 L 1168.375 2106.789062 L 1197.835938 2106.789062 L 1197.835938 2127.527344 L 1225.21875 2127.527344 L 1225.21875 2106.789062 L 1254.679688 2106.789062 L 1254.679688 2127.527344 L 1282.0625 2127.527344 L 1282.0625 2106.789062 L 1299.414062 2106.789062 L 1299.414062 2075.183594 L 1391.734375 2075.183594 L 1694.136719 1728.859375 L 1694.136719 1430.714844 L 1726.300781 1430.714844 L 1726.300781 1414.71875 L 1755.238281 1414.71875 L 1755.238281 1399.941406 L 1786.050781 1399.941406 L 1786.050781 1370.390625 L 1755.238281 1370.390625 L 1755.238281 1355.613281 L 1726.300781 1355.613281 L 1726.300781 1313.972656 L 1755.238281 1313.972656 L 1755.238281 1299.195312 L 1786.050781 1299.195312 L 1786.050781 1269.644531 L 1755.238281 1269.644531 L 1755.238281 1254.871094 L 1726.300781 1254.871094 L 1726.300781 1213.226562 L 1755.238281 1213.226562 L 1755.238281 1198.449219 L 1786.050781 1198.449219 L 1786.050781 1168.898438 L 1755.238281 1168.898438 L 1755.238281 1154.125 L 1726.300781 1154.125 L 1726.300781 1112.480469 L 1755.238281 1112.480469 L 1755.238281 1097.707031 L 1786.050781 1097.707031 L 1786.050781 1068.152344 L 1755.238281 1068.152344 L 1755.238281 1053.378906 L 1726.300781 1053.378906 L 1726.300781 1011.734375 L 1755.238281 1011.734375 L 1755.238281 996.960938 L 1786.050781 996.960938 L 1786.050781 967.410156 L 1755.238281 967.410156 L 1755.238281 952.632812 L 1726.300781 952.632812 L 1726.300781 910.992188 L 1755.238281 910.992188 Z M 1108.050781 1205.46875 L 1053.875 1205.46875 L 1053.875 1152.550781 L 1108.050781 1152.550781 Z M 1149.453125 1991.453125 C 1154.488281 2001.320312 1164.210938 2008.007812 1175.375 2008.007812 C 1191.726562 2008.007812 1204.964844 1993.710938 1204.964844 1976.066406 C 1204.964844 1958.421875 1191.707031 1944.125 1175.375 1944.125 C 1163.746094 1944.125 1153.710938 1951.382812 1148.878906 1961.902344 L 1033.96875 1961.902344 L 1009.933594 1990.546875 L 983.550781 1990.546875 L 983.550781 1932.757812 L 1272.140625 1932.757812 L 1272.140625 1990.230469 L 1250.660156 1990.230469 L 1219.148438 2027.78125 L 1099.976562 2027.78125 C 1096.238281 2014.78125 1085 2005.339844 1071.722656 2005.339844 C 1055.375 2005.339844 1042.132812 2019.632812 1042.132812 2037.28125 C 1042.132812 2054.925781 1055.390625 2069.21875 1071.722656 2069.21875 C 1081.019531 2069.21875 1089.3125 2064.574219 1094.738281 2057.332031 L 1231.292969 2057.332031 L 1262.808594 2019.78125 L 1272.140625 2019.78125 L 1272.140625 2077.257812 L 983.550781 2077.257812 L 983.550781 2020.117188 L 1022.0625 2020.117188 L 1046.097656 1991.472656 L 1149.433594 1991.472656 Z M 1666.863281 1717.121094 L 1380.03125 2045.613281 L 1299.523438 2045.613281 L 1299.523438 2019.746094 L 1347.574219 2019.746094 L 1621.925781 1701.417969 L 1621.925781 1430.695312 L 1666.882812 1430.695312 L 1666.882812 1717.101562 Z M 1699.023438 1401.164062 L 1517.402344 1401.164062 L 1517.402344 870.550781 L 1699.023438 870.550781 Z M 1699.023438 1401.164062 " fill-opacity="1" fill-rule="nonzero"/></g><path fill="#1f628e" d="M 1392.957031 1519.554688 C 1366.792969 1519.554688 1345.5 1542.535156 1345.5 1570.789062 C 1345.5 1599.042969 1366.792969 1622.023438 1392.957031 1622.023438 C 1419.121094 1622.023438 1440.414062 1599.042969 1440.414062 1570.789062 C 1440.414062 1542.535156 1419.121094 1519.554688 1392.957031 1519.554688 Z M 1392.957031 1592.453125 C 1381.882812 1592.453125 1372.886719 1582.730469 1372.886719 1570.789062 C 1372.886719 1558.847656 1381.882812 1549.125 1392.957031 1549.125 C 1404.027344 1549.125 1413.027344 1558.847656 1413.027344 1570.789062 C 1413.027344 1582.730469 1404.027344 1592.453125 1392.957031 1592.453125 Z M 1392.957031 1592.453125 " fill-opacity="1" fill-rule="nonzero"/><path fill="#1f628e" d="M 1318.023438 510.769531 L 1204.074219 510.769531 L 1139.378906 580.589844 L 1078.777344 580.589844 C 1074.539062 567.554688 1063.074219 558.1875 1049.558594 558.1875 C 1032.449219 558.1875 1018.5625 573.167969 1018.5625 591.644531 C 1018.5625 610.125 1032.433594 625.105469 1049.558594 625.105469 C 1060.335938 625.105469 1069.816406 619.160156 1075.371094 610.144531 L 1150.730469 610.144531 L 1215.425781 540.320312 L 1306.691406 540.320312 L 1359.203125 596.996094 L 1359.203125 621.457031 L 1282.988281 621.457031 L 1282.988281 711.332031 L 1217.589844 711.332031 L 1152.898438 641.507812 L 1035.136719 641.507812 C 1030.082031 630.457031 1019.5625 622.828125 1007.359375 622.828125 C 990.253906 622.828125 976.367188 637.804688 976.367188 656.285156 C 976.367188 674.765625 990.234375 689.742188 1007.359375 689.742188 C 1019.5625 689.742188 1030.082031 682.113281 1035.136719 671.0625 L 1141.546875 671.0625 L 1206.242188 740.882812 L 1282.988281 740.882812 L 1282.988281 760.03125 L 1341.371094 823.039062 L 1462.796875 823.039062 L 1462.796875 668.300781 L 1419.398438 621.457031 L 1386.585938 621.457031 L 1386.585938 584.757812 L 1318.039062 510.769531 Z M 1435.414062 680.558594 L 1435.414062 793.507812 L 1352.722656 793.507812 L 1310.375 747.808594 L 1310.375 651.027344 L 1408.046875 651.027344 Z M 1435.414062 680.558594 " fill-opacity="1" fill-rule="nonzero"/><path fill="#1f628e" d="M 1372.886719 769.046875 C 1399.046875 769.046875 1420.339844 746.070312 1420.339844 717.832031 C 1420.339844 689.59375 1399.046875 666.597656 1372.886719 666.597656 C 1346.722656 666.597656 1325.429688 689.578125 1325.429688 717.832031 C 1325.429688 746.085938 1346.722656 769.046875 1372.886719 769.046875 Z M 1372.886719 696.148438 C 1383.957031 696.148438 1392.957031 705.871094 1392.957031 717.8125 C 1392.957031 729.757812 1383.957031 739.476562 1372.886719 739.476562 C 1361.8125 739.476562 1352.8125 729.757812 1352.8125 717.8125 C 1352.8125 705.871094 1361.8125 696.148438 1372.886719 696.148438 Z M 1372.886719 696.148438 " fill-opacity="1" fill-rule="nonzero"/><path fill="#ff914d" d="M 435.402344 1144.328125 C 435.402344 1153.328125 428.625 1160.640625 420.292969 1160.640625 C 411.960938 1160.640625 405.167969 1153.328125 405.167969 1144.328125 C 405.167969 1135.332031 411.941406 1127.996094 420.292969 1127.996094 C 428.644531 1127.996094 435.402344 1135.3125 435.402344 1144.328125 Z M 435.402344 1144.328125 " fill-opacity="1" fill-rule="nonzero"/><path fill="#ff914d" d="M 260.425781 892.066406 C 260.425781 901.085938 253.648438 908.398438 245.300781 908.398438 C 236.949219 908.398438 230.191406 901.085938 230.191406 892.066406 C 230.191406 883.050781 236.96875 875.753906 245.300781 875.753906 C 253.632812 875.753906 260.425781 883.070312 260.425781 892.066406 Z M 260.425781 892.066406 " fill-opacity="1" fill-rule="nonzero"/><path fill="#ff914d" d="M 390.722656 843.167969 C 390.722656 852.183594 383.945312 859.496094 375.613281 859.496094 C 367.28125 859.496094 360.488281 852.183594 360.488281 843.167969 C 360.488281 834.148438 367.265625 826.835938 375.613281 826.835938 C 383.964844 826.835938 390.722656 834.148438 390.722656 843.167969 Z M 390.722656 843.167969 " fill-opacity="1" fill-rule="nonzero"/><path fill="#ff914d" d="M 405.371094 1285.660156 C 403.277344 1294.382812 395 1299.621094 386.910156 1297.34375 C 378.816406 1295.066406 373.984375 1286.160156 376.078125 1277.421875 C 378.1875 1268.699219 386.464844 1263.480469 394.554688 1265.738281 C 402.628906 1268.015625 407.480469 1276.941406 405.371094 1285.660156 Z M 405.371094 1285.660156 " fill-opacity="1" fill-rule="nonzero"/><path fill="#ff914d" d="M 176.9375 1137.867188 C 174.828125 1146.589844 166.570312 1151.828125 158.476562 1149.550781 C 150.386719 1147.273438 145.554688 1138.367188 147.644531 1129.628906 C 149.757812 1120.90625 158.035156 1115.683594 166.105469 1117.945312 C 174.199219 1120.222656 179.050781 1129.144531 176.9375 1137.867188 Z M 176.9375 1137.867188 " fill-opacity="1" fill-rule="nonzero"/><path fill="#ff914d" d="M 612.007812 1215.691406 C 612.007812 1216.761719 611.910156 1217.824219 611.71875 1218.875 C 611.523438 1219.925781 611.238281 1220.949219 610.855469 1221.9375 C 610.476562 1222.929688 610.011719 1223.871094 609.457031 1224.761719 C 608.90625 1225.652344 608.28125 1226.480469 607.578125 1227.238281 C 606.875 1227.996094 606.109375 1228.671875 605.285156 1229.269531 C 604.460938 1229.863281 603.585938 1230.367188 602.667969 1230.777344 C 601.75 1231.1875 600.804688 1231.496094 599.832031 1231.707031 C 598.859375 1231.914062 597.875 1232.019531 596.878906 1232.019531 C 595.886719 1232.019531 594.902344 1231.914062 593.929688 1231.707031 C 592.953125 1231.496094 592.007812 1231.1875 591.089844 1230.777344 C 590.171875 1230.367188 589.300781 1229.863281 588.476562 1229.269531 C 587.648438 1228.671875 586.886719 1227.996094 586.183594 1227.238281 C 585.480469 1226.480469 584.855469 1225.652344 584.300781 1224.761719 C 583.75 1223.871094 583.285156 1222.929688 582.90625 1221.9375 C 582.523438 1220.949219 582.238281 1219.925781 582.042969 1218.875 C 581.851562 1217.824219 581.753906 1216.761719 581.753906 1215.691406 C 581.753906 1214.617188 581.851562 1213.554688 582.042969 1212.503906 C 582.238281 1211.453125 582.523438 1210.429688 582.90625 1209.441406 C 583.285156 1208.449219 583.75 1207.507812 584.300781 1206.617188 C 584.855469 1205.726562 585.480469 1204.898438 586.183594 1204.140625 C 586.886719 1203.382812 587.648438 1202.707031 588.476562 1202.109375 C 589.300781 1201.515625 590.171875 1201.011719 591.089844 1200.601562 C 592.007812 1200.191406 592.953125 1199.882812 593.929688 1199.671875 C 594.902344 1199.464844 595.886719 1199.359375 596.878906 1199.359375 C 597.875 1199.359375 598.859375 1199.464844 599.832031 1199.671875 C 600.804688 1199.882812 601.75 1200.191406 602.667969 1200.601562 C 603.585938 1201.011719 604.460938 1201.515625 605.285156 1202.109375 C 606.109375 1202.707031 606.875 1203.382812 607.578125 1204.140625 C 608.28125 1204.898438 608.90625 1205.726562 609.457031 1206.617188 C 610.011719 1207.507812 610.476562 1208.449219 610.855469 1209.441406 C 611.238281 1210.429688 611.523438 1211.453125 611.71875 1212.503906 C 611.910156 1213.554688 612.007812 1214.617188 612.007812 1215.691406 Z M 612.007812 1215.691406 " fill-opacity="1" fill-rule="nonzero"/><path fill="#ff914d" d="M 392.722656 1593.175781 C 392.722656 1602.191406 385.945312 1609.503906 377.613281 1609.503906 C 369.28125 1609.503906 362.488281 1602.191406 362.488281 1593.175781 C 362.488281 1584.15625 369.265625 1576.84375 377.613281 1576.84375 C 385.964844 1576.84375 392.722656 1584.15625 392.722656 1593.175781 Z M 392.722656 1593.175781 " fill-opacity="1" fill-rule="nonzero"/><path fill="#ff914d" d="M 326.289062 1485.449219 C 326.289062 1494.464844 319.511719 1501.78125 311.179688 1501.78125 C 302.847656 1501.78125 296.050781 1494.464844 296.050781 1485.449219 C 296.050781 1476.429688 302.828125 1469.117188 311.179688 1469.117188 C 319.53125 1469.117188 326.289062 1476.429688 326.289062 1485.449219 Z M 326.289062 1485.449219 " fill-opacity="1" fill-rule="nonzero"/><path fill="#ff914d" d="M 213.785156 1508.425781 C 213.785156 1509.5 213.6875 1510.5625 213.496094 1511.613281 C 213.300781 1512.664062 213.015625 1513.6875 212.632812 1514.675781 C 212.253906 1515.667969 211.789062 1516.609375 211.234375 1517.5 C 210.683594 1518.390625 210.058594 1519.214844 209.355469 1519.976562 C 208.652344 1520.734375 207.886719 1521.410156 207.0625 1522.007812 C 206.234375 1522.601562 205.363281 1523.105469 204.445312 1523.515625 C 203.527344 1523.925781 202.582031 1524.234375 201.609375 1524.445312 C 200.632812 1524.652344 199.652344 1524.757812 198.65625 1524.757812 C 197.664062 1524.757812 196.679688 1524.652344 195.707031 1524.445312 C 194.730469 1524.234375 193.785156 1523.925781 192.867188 1523.515625 C 191.949219 1523.105469 191.078125 1522.601562 190.253906 1522.007812 C 189.425781 1521.410156 188.664062 1520.734375 187.960938 1519.976562 C 187.257812 1519.214844 186.632812 1518.390625 186.078125 1517.5 C 185.527344 1516.609375 185.0625 1515.667969 184.679688 1514.675781 C 184.300781 1513.6875 184.015625 1512.664062 183.820312 1511.613281 C 183.625 1510.5625 183.53125 1509.5 183.53125 1508.425781 C 183.53125 1507.355469 183.625 1506.292969 183.820312 1505.242188 C 184.015625 1504.1875 184.300781 1503.167969 184.679688 1502.175781 C 185.0625 1501.1875 185.527344 1500.246094 186.078125 1499.355469 C 186.632812 1498.460938 187.257812 1497.636719 187.960938 1496.878906 C 188.664062 1496.121094 189.425781 1495.445312 190.253906 1494.847656 C 191.078125 1494.253906 191.949219 1493.75 192.867188 1493.339844 C 193.785156 1492.929688 194.730469 1492.617188 195.707031 1492.410156 C 196.679688 1492.199219 197.664062 1492.097656 198.65625 1492.097656 C 199.652344 1492.097656 200.632812 1492.199219 201.609375 1492.410156 C 202.582031 1492.617188 203.527344 1492.929688 204.445312 1493.339844 C 205.363281 1493.75 206.234375 1494.253906 207.0625 1494.847656 C 207.886719 1495.445312 208.652344 1496.121094 209.355469 1496.878906 C 210.058594 1497.636719 210.683594 1498.460938 211.234375 1499.355469 C 211.789062 1500.246094 212.253906 1501.1875 212.632812 1502.175781 C 213.015625 1503.167969 213.300781 1504.1875 213.496094 1505.242188 C 213.6875 1506.292969 213.785156 1507.355469 213.785156 1508.425781 Z M 213.785156 1508.425781 " fill-opacity="1" fill-rule="nonzero"/><path fill="#ff914d" d="M 154.609375 1250.332031 C 154.609375 1259.351562 147.832031 1266.664062 139.5 1266.664062 C 131.167969 1266.664062 124.371094 1259.351562 124.371094 1250.332031 C 124.371094 1241.316406 131.148438 1234 139.5 1234 C 147.851562 1234 154.609375 1241.316406 154.609375 1250.332031 Z M 154.609375 1250.332031 " fill-opacity="1" fill-rule="nonzero"/><path fill="#ff914d" d="M 213.785156 1625.816406 C 213.785156 1634.835938 207.007812 1642.148438 198.65625 1642.148438 C 190.308594 1642.148438 183.53125 1634.835938 183.53125 1625.816406 C 183.53125 1616.800781 190.308594 1609.503906 198.65625 1609.503906 C 207.007812 1609.503906 213.785156 1616.820312 213.785156 1625.816406 Z M 213.785156 1625.816406 " fill-opacity="1" fill-rule="nonzero"/><path fill="#ff914d" d="M 472.121094 1736.582031 C 463.769531 1736.582031 456.992188 1743.894531 456.992188 1752.910156 C 456.992188 1761.929688 463.769531 1769.242188 472.121094 1769.242188 C 480.46875 1769.242188 487.246094 1761.929688 487.246094 1752.910156 C 487.246094 1743.894531 480.46875 1736.582031 472.121094 1736.582031 Z M 472.121094 1736.582031 " fill-opacity="1" fill-rule="nonzero"/><path fill="#ff914d" d="M 599.953125 1934.21875 C 599.953125 1925.203125 593.175781 1917.890625 584.828125 1917.890625 C 576.476562 1917.890625 569.699219 1925.203125 569.699219 1934.21875 C 569.699219 1943.238281 576.476562 1950.550781 584.828125 1950.550781 C 593.175781 1950.550781 599.953125 1943.238281 599.953125 1934.21875 Z M 599.953125 1934.21875 " fill-opacity="1" fill-rule="nonzero"/><path fill="#ff914d" d="M 472.121094 1907.410156 C 463.769531 1907.410156 456.992188 1914.722656 456.992188 1923.742188 C 456.992188 1932.757812 463.769531 1940.070312 472.121094 1940.070312 C 480.46875 1940.070312 487.246094 1932.757812 487.246094 1923.742188 C 487.246094 1914.722656 480.46875 1907.410156 472.121094 1907.410156 Z M 472.121094 1907.410156 " fill-opacity="1" fill-rule="nonzero"/><path fill="#ff914d" d="M 573.105469 1682.476562 C 573.105469 1683.550781 573.007812 1684.613281 572.816406 1685.664062 C 572.621094 1686.714844 572.335938 1687.734375 571.953125 1688.726562 C 571.574219 1689.71875 571.109375 1690.660156 570.554688 1691.550781 C 570.003906 1692.441406 569.378906 1693.265625 568.675781 1694.023438 C 567.972656 1694.78125 567.207031 1695.460938 566.382812 1696.054688 C 565.558594 1696.652344 564.683594 1697.15625 563.765625 1697.566406 C 562.851562 1697.976562 561.902344 1698.285156 560.929688 1698.496094 C 559.957031 1698.703125 558.972656 1698.808594 557.980469 1698.808594 C 556.984375 1698.808594 556 1698.703125 555.027344 1698.496094 C 554.054688 1698.285156 553.105469 1697.976562 552.1875 1697.566406 C 551.273438 1697.15625 550.398438 1696.652344 549.574219 1696.054688 C 548.75 1695.460938 547.984375 1694.78125 547.28125 1694.023438 C 546.578125 1693.265625 545.953125 1692.441406 545.398438 1691.550781 C 544.847656 1690.660156 544.382812 1689.71875 544.003906 1688.726562 C 543.621094 1687.734375 543.335938 1686.714844 543.140625 1685.664062 C 542.949219 1684.613281 542.851562 1683.550781 542.851562 1682.476562 C 542.851562 1681.40625 542.949219 1680.34375 543.140625 1679.292969 C 543.335938 1678.238281 543.621094 1677.21875 544.003906 1676.226562 C 544.382812 1675.238281 544.847656 1674.296875 545.398438 1673.402344 C 545.953125 1672.511719 546.578125 1671.6875 547.28125 1670.929688 C 547.984375 1670.171875 548.75 1669.492188 549.574219 1668.898438 C 550.398438 1668.300781 551.273438 1667.800781 552.1875 1667.390625 C 553.105469 1666.980469 554.054688 1666.667969 555.027344 1666.460938 C 556 1666.25 556.984375 1666.144531 557.980469 1666.144531 C 558.972656 1666.144531 559.957031 1666.25 560.929688 1666.460938 C 561.902344 1666.667969 562.851562 1666.980469 563.765625 1667.390625 C 564.683594 1667.800781 565.558594 1668.300781 566.382812 1668.898438 C 567.207031 1669.492188 567.972656 1670.171875 568.675781 1670.929688 C 569.378906 1671.6875 570.003906 1672.511719 570.554688 1673.402344 C 571.109375 1674.296875 571.574219 1675.238281 571.953125 1676.226562 C 572.335938 1677.21875 572.621094 1678.238281 572.816406 1679.292969 C 573.007812 1680.34375 573.105469 1681.40625 573.105469 1682.476562 Z M 573.105469 1682.476562 " fill-opacity="1" fill-rule="nonzero"/><path fill="#ff914d" d="M 756.394531 1940.054688 C 756.394531 1949.070312 763.171875 1956.382812 771.523438 1956.382812 C 779.875 1956.382812 786.652344 1949.070312 786.652344 1940.054688 C 786.652344 1931.035156 779.875 1923.722656 771.523438 1923.722656 C 763.171875 1923.722656 756.394531 1931.035156 756.394531 1940.054688 Z M 756.394531 1940.054688 " fill-opacity="1" fill-rule="nonzero"/><path fill="#ff914d" d="M 717.882812 1800.644531 C 717.882812 1809.664062 724.660156 1816.976562 733.011719 1816.976562 C 741.359375 1816.976562 748.136719 1809.664062 748.136719 1800.644531 C 748.136719 1791.628906 741.359375 1784.316406 733.011719 1784.316406 C 724.660156 1784.316406 717.882812 1791.628906 717.882812 1800.644531 Z M 717.882812 1800.644531 " fill-opacity="1" fill-rule="nonzero"/><path fill="#ff914d" d="M 630.988281 1419.347656 C 622.636719 1419.347656 615.859375 1426.660156 615.859375 1435.679688 C 615.859375 1444.695312 622.636719 1452.007812 630.988281 1452.007812 C 639.335938 1452.007812 646.113281 1444.695312 646.113281 1435.679688 C 646.113281 1426.660156 639.335938 1419.347656 630.988281 1419.347656 Z M 630.988281 1419.347656 " fill-opacity="1" fill-rule="nonzero"/><path fill="#ff914d" d="M 661.222656 1578.75 C 669.574219 1578.75 676.351562 1571.4375 676.351562 1562.417969 C 676.351562 1553.402344 669.574219 1546.089844 661.222656 1546.089844 C 652.871094 1546.089844 646.097656 1553.402344 646.097656 1562.417969 C 646.097656 1571.4375 652.871094 1578.75 661.222656 1578.75 Z M 661.222656 1578.75 " fill-opacity="1" fill-rule="nonzero"/><path fill="#ff914d" d="M 496.042969 1469.136719 C 496.042969 1478.152344 502.820312 1485.46875 511.171875 1485.46875 C 519.519531 1485.46875 526.296875 1478.152344 526.296875 1469.136719 C 526.296875 1460.117188 519.519531 1452.804688 511.171875 1452.804688 C 502.820312 1452.804688 496.042969 1460.117188 496.042969 1469.136719 Z M 496.042969 1469.136719 " fill-opacity="1" fill-rule="nonzero"/><path fill="#ff914d" d="M 741.730469 1249.554688 C 741.730469 1258.574219 748.507812 1265.886719 756.859375 1265.886719 C 765.210938 1265.886719 771.984375 1258.574219 771.984375 1249.554688 C 771.984375 1240.539062 765.210938 1233.222656 756.859375 1233.222656 C 748.507812 1233.222656 741.730469 1240.539062 741.730469 1249.554688 Z M 741.730469 1249.554688 " fill-opacity="1" fill-rule="nonzero"/><path fill="#ff914d" d="M 562.976562 1025.179688 C 562.976562 1026.25 562.882812 1027.3125 562.6875 1028.363281 C 562.492188 1029.417969 562.207031 1030.4375 561.828125 1031.429688 C 561.445312 1032.417969 560.980469 1033.359375 560.429688 1034.25 C 559.875 1035.144531 559.25 1035.96875 558.546875 1036.726562 C 557.84375 1037.484375 557.082031 1038.160156 556.253906 1038.757812 C 555.429688 1039.351562 554.558594 1039.855469 553.640625 1040.265625 C 552.722656 1040.675781 551.777344 1040.988281 550.800781 1041.195312 C 549.828125 1041.40625 548.84375 1041.507812 547.851562 1041.511719 C 546.855469 1041.507812 545.875 1041.40625 544.898438 1041.195312 C 543.925781 1040.988281 542.980469 1040.675781 542.0625 1040.265625 C 541.144531 1039.855469 540.273438 1039.351562 539.445312 1038.757812 C 538.621094 1038.160156 537.855469 1037.484375 537.152344 1036.726562 C 536.449219 1035.96875 535.824219 1035.144531 535.273438 1034.25 C 534.71875 1033.359375 534.253906 1032.417969 533.875 1031.429688 C 533.492188 1030.4375 533.207031 1029.417969 533.011719 1028.363281 C 532.820312 1027.3125 532.722656 1026.25 532.722656 1025.179688 C 532.722656 1024.105469 532.820312 1023.042969 533.011719 1021.992188 C 533.207031 1020.941406 533.492188 1019.917969 533.875 1018.929688 C 534.253906 1017.9375 534.71875 1016.996094 535.273438 1016.105469 C 535.824219 1015.214844 536.449219 1014.390625 537.152344 1013.628906 C 537.855469 1012.871094 538.621094 1012.195312 539.445312 1011.601562 C 540.273438 1011.003906 541.144531 1010.5 542.0625 1010.089844 C 542.980469 1009.679688 543.925781 1009.371094 544.898438 1009.160156 C 545.875 1008.953125 546.855469 1008.847656 547.851562 1008.847656 C 548.84375 1008.847656 549.828125 1008.953125 550.800781 1009.160156 C 551.777344 1009.371094 552.722656 1009.679688 553.640625 1010.089844 C 554.558594 1010.5 555.429688 1011.003906 556.253906 1011.601562 C 557.082031 1012.195312 557.84375 1012.871094 558.546875 1013.628906 C 559.25 1014.390625 559.875 1015.214844 560.429688 1016.105469 C 560.980469 1016.996094 561.445312 1017.9375 561.828125 1018.929688 C 562.207031 1019.917969 562.492188 1020.941406 562.6875 1021.992188 C 562.882812 1023.042969 562.976562 1024.105469 562.976562 1025.179688 Z M 562.976562 1025.179688 " fill-opacity="1" fill-rule="nonzero"/><path fill="#ff914d" d="M 475.027344 627.140625 C 475.027344 636.15625 481.804688 643.472656 490.15625 643.472656 C 498.503906 643.472656 505.28125 636.160156 505.28125 627.140625 C 505.28125 618.125 498.503906 610.808594 490.15625 610.808594 C 481.804688 610.808594 475.027344 618.125 475.027344 627.140625 Z M 475.027344 627.140625 " fill-opacity="1" fill-rule="nonzero"/><path fill="#ff914d" d="M 651.929688 430.945312 C 651.929688 439.964844 658.707031 447.277344 667.054688 447.277344 C 675.40625 447.277344 682.183594 439.964844 682.183594 430.945312 C 682.183594 421.929688 675.40625 414.613281 667.054688 414.613281 C 658.707031 414.613281 651.929688 421.929688 651.929688 430.945312 Z M 651.929688 430.945312 " fill-opacity="1" fill-rule="nonzero"/><path fill="#ff914d" d="M 554.015625 709.945312 C 554.015625 718.960938 560.792969 726.277344 569.144531 726.277344 C 577.496094 726.277344 584.269531 718.960938 584.269531 709.945312 C 584.269531 700.925781 577.496094 693.613281 569.144531 693.613281 C 560.792969 693.613281 554.015625 700.925781 554.015625 709.945312 Z M 554.015625 709.945312 " fill-opacity="1" fill-rule="nonzero"/><path fill="#ff914d" d="M 667.054688 672.5625 C 667.054688 681.578125 673.832031 688.890625 682.183594 688.890625 C 690.535156 688.890625 697.3125 681.578125 697.3125 672.5625 C 697.3125 663.542969 690.535156 656.230469 682.183594 656.230469 C 673.832031 656.230469 667.054688 663.542969 667.054688 672.5625 Z M 667.054688 672.5625 " fill-opacity="1" fill-rule="nonzero"/><path fill="#ff914d" d="M 630.617188 875.753906 C 630.617188 876.828125 630.519531 877.890625 630.324219 878.941406 C 630.132812 879.992188 629.84375 881.015625 629.464844 882.003906 C 629.085938 882.996094 628.617188 883.9375 628.066406 884.828125 C 627.515625 885.71875 626.886719 886.542969 626.1875 887.300781 C 625.484375 888.0625 624.71875 888.738281 623.894531 889.332031 C 623.066406 889.929688 622.195312 890.433594 621.277344 890.84375 C 620.359375 891.253906 619.414062 891.5625 618.441406 891.773438 C 617.464844 891.980469 616.480469 892.085938 615.488281 892.085938 C 614.496094 892.085938 613.511719 891.980469 612.539062 891.773438 C 611.5625 891.5625 610.617188 891.253906 609.699219 890.84375 C 608.78125 890.433594 607.910156 889.929688 607.085938 889.332031 C 606.257812 888.738281 605.496094 888.0625 604.792969 887.300781 C 604.089844 886.542969 603.460938 885.71875 602.910156 884.828125 C 602.359375 883.9375 601.894531 882.996094 601.511719 882.003906 C 601.132812 881.015625 600.847656 879.992188 600.652344 878.941406 C 600.457031 877.890625 600.363281 876.828125 600.363281 875.753906 C 600.363281 874.683594 600.457031 873.621094 600.652344 872.570312 C 600.847656 871.515625 601.132812 870.496094 601.511719 869.503906 C 601.894531 868.515625 602.359375 867.574219 602.910156 866.683594 C 603.460938 865.789062 604.089844 864.964844 604.792969 864.207031 C 605.496094 863.449219 606.257812 862.773438 607.085938 862.175781 C 607.910156 861.582031 608.78125 861.078125 609.699219 860.667969 C 610.617188 860.257812 611.5625 859.945312 612.539062 859.738281 C 613.511719 859.527344 614.496094 859.421875 615.488281 859.421875 C 616.480469 859.421875 617.464844 859.527344 618.441406 859.738281 C 619.414062 859.945312 620.359375 860.257812 621.277344 860.667969 C 622.195312 861.078125 623.066406 861.582031 623.894531 862.175781 C 624.71875 862.773438 625.484375 863.449219 626.1875 864.207031 C 626.886719 864.964844 627.515625 865.789062 628.066406 866.683594 C 628.617188 867.574219 629.085938 868.515625 629.464844 869.503906 C 629.84375 870.496094 630.132812 871.515625 630.324219 872.570312 C 630.519531 873.621094 630.617188 874.683594 630.617188 875.753906 Z M 630.617188 875.753906 " fill-opacity="1" fill-rule="nonzero"/><path fill="#ff914d" d="M 716.585938 987.941406 C 716.585938 996.960938 723.363281 1004.273438 731.714844 1004.273438 C 740.066406 1004.273438 746.839844 996.960938 746.839844 987.941406 C 746.839844 978.925781 740.066406 971.613281 731.714844 971.613281 C 723.363281 971.613281 716.585938 978.925781 716.585938 987.941406 Z M 716.585938 987.941406 " fill-opacity="1" fill-rule="nonzero"/><path fill="#ff914d" d="M 761.96875 866.921875 C 761.96875 867.996094 761.871094 869.058594 761.679688 870.109375 C 761.484375 871.160156 761.199219 872.179688 760.816406 873.171875 C 760.4375 874.164062 759.972656 875.105469 759.417969 875.996094 C 758.867188 876.886719 758.242188 877.710938 757.539062 878.46875 C 756.835938 879.230469 756.070312 879.90625 755.246094 880.5 C 754.417969 881.097656 753.546875 881.601562 752.628906 882.011719 C 751.710938 882.421875 750.765625 882.730469 749.792969 882.941406 C 748.820312 883.148438 747.835938 883.253906 746.839844 883.253906 C 745.847656 883.253906 744.863281 883.148438 743.890625 882.941406 C 742.914062 882.730469 741.96875 882.421875 741.050781 882.011719 C 740.132812 881.601562 739.261719 881.097656 738.4375 880.5 C 737.609375 879.90625 736.847656 879.230469 736.144531 878.46875 C 735.441406 877.710938 734.816406 876.886719 734.261719 875.996094 C 733.710938 875.105469 733.246094 874.164062 732.867188 873.171875 C 732.484375 872.179688 732.199219 871.160156 732.003906 870.109375 C 731.8125 869.058594 731.714844 867.996094 731.714844 866.921875 C 731.714844 865.851562 731.8125 864.789062 732.003906 863.738281 C 732.199219 862.683594 732.484375 861.664062 732.867188 860.671875 C 733.246094 859.683594 733.710938 858.742188 734.261719 857.847656 C 734.816406 856.957031 735.441406 856.132812 736.144531 855.375 C 736.847656 854.617188 737.609375 853.941406 738.4375 853.34375 C 739.261719 852.75 740.132812 852.246094 741.050781 851.835938 C 741.96875 851.425781 742.914062 851.113281 743.890625 850.90625 C 744.863281 850.695312 745.847656 850.589844 746.839844 850.589844 C 747.835938 850.589844 748.820312 850.695312 749.792969 850.90625 C 750.765625 851.113281 751.710938 851.425781 752.628906 851.835938 C 753.546875 852.246094 754.417969 852.75 755.246094 853.34375 C 756.070312 853.941406 756.835938 854.617188 757.539062 855.375 C 758.242188 856.132812 758.867188 856.957031 759.417969 857.851562 C 759.972656 858.742188 760.4375 859.683594 760.816406 860.671875 C 761.199219 861.664062 761.484375 862.683594 761.679688 863.738281 C 761.871094 864.789062 761.96875 865.851562 761.96875 866.921875 Z M 761.96875 866.921875 " fill-opacity="1" fill-rule="nonzero"/><path fill="#ff914d" d="M 317.269531 1803.921875 C 317.269531 1804.996094 317.175781 1806.058594 316.980469 1807.109375 C 316.785156 1808.160156 316.5 1809.183594 316.121094 1810.171875 C 315.738281 1811.164062 315.273438 1812.105469 314.722656 1812.996094 C 314.167969 1813.886719 313.542969 1814.710938 312.839844 1815.472656 C 312.136719 1816.230469 311.375 1816.90625 310.546875 1817.503906 C 309.722656 1818.097656 308.851562 1818.601562 307.933594 1819.011719 C 307.015625 1819.421875 306.070312 1819.730469 305.09375 1819.941406 C 304.121094 1820.148438 303.136719 1820.253906 302.144531 1820.253906 C 301.148438 1820.253906 300.167969 1820.148438 299.191406 1819.941406 C 298.21875 1819.730469 297.273438 1819.421875 296.355469 1819.011719 C 295.4375 1818.601562 294.566406 1818.097656 293.738281 1817.503906 C 292.914062 1816.90625 292.148438 1816.230469 291.445312 1815.472656 C 290.746094 1814.710938 290.117188 1813.886719 289.566406 1812.996094 C 289.011719 1812.105469 288.546875 1811.164062 288.167969 1810.171875 C 287.789062 1809.183594 287.5 1808.160156 287.304688 1807.109375 C 287.113281 1806.058594 287.015625 1804.996094 287.015625 1803.921875 C 287.015625 1802.851562 287.113281 1801.789062 287.304688 1800.738281 C 287.5 1799.6875 287.789062 1798.664062 288.167969 1797.671875 C 288.546875 1796.683594 289.011719 1795.742188 289.566406 1794.851562 C 290.117188 1793.957031 290.746094 1793.132812 291.445312 1792.375 C 292.148438 1791.617188 292.914062 1790.941406 293.738281 1790.34375 C 294.566406 1789.75 295.4375 1789.246094 296.355469 1788.835938 C 297.273438 1788.425781 298.21875 1788.113281 299.191406 1787.90625 C 300.167969 1787.695312 301.148438 1787.59375 302.144531 1787.59375 C 303.136719 1787.59375 304.121094 1787.695312 305.09375 1787.90625 C 306.070312 1788.113281 307.015625 1788.425781 307.933594 1788.835938 C 308.851562 1789.246094 309.722656 1789.75 310.546875 1790.34375 C 311.375 1790.941406 312.136719 1791.617188 312.839844 1792.375 C 313.542969 1793.132812 314.167969 1793.957031 314.722656 1794.851562 C 315.273438 1795.742188 315.738281 1796.683594 316.121094 1797.671875 C 316.5 1798.664062 316.785156 1799.6875 316.980469 1800.738281 C 317.175781 1801.789062 317.269531 1802.851562 317.269531 1803.921875 Z M 317.269531 1803.921875 " fill-opacity="1" fill-rule="nonzero"/><path fill="#ff914d" d="M 967.625 1363.726562 C 967.328125 1380.074219 964.941406 1395.980469 960.699219 1411.105469 L 1017.285156 1411.105469 C 1020.433594 1395.738281 1022.191406 1379.890625 1022.414062 1363.726562 Z M 967.625 1363.726562 " fill-opacity="1" fill-rule="nonzero"/><path fill="#ff914d" d="M 871.953125 1117.90625 C 887.285156 1097.871094 898.96875 1074.949219 906.894531 1049.859375 L 847.773438 1049.859375 C 822.628906 1104.761719 776.261719 1125.332031 761.914062 1130.515625 C 759.246094 1131.109375 756.597656 1131.71875 753.953125 1132.40625 C 752.914062 1132.683594 751.933594 1133.015625 750.953125 1133.40625 C 729.734375 1137.125 697.976562 1133.515625 676.886719 1113.183594 C 656.207031 1093.226562 649.875 1060.785156 658.074219 1016.734375 C 661.058594 1000.738281 651.445312 985.148438 636.632812 981.945312 C 621.804688 978.722656 607.378906 989.089844 604.398438 1005.089844 C 589.085938 1087.355469 615.527344 1133.238281 640.410156 1157.253906 C 667.703125 1183.582031 703.292969 1193.953125 735.082031 1193.953125 C 749.75 1193.953125 763.578125 1191.730469 775.429688 1187.878906 C 784.242188 1186.121094 793.242188 1185.136719 802.316406 1184.953125 C 845.699219 1184.121094 886.785156 1201.542969 918.023438 1234.058594 C 939.5 1256.425781 954.5 1284.105469 962.050781 1314.433594 L 1018.285156 1314.433594 C 1009.785156 1267.832031 988.363281 1225.1875 956.035156 1191.507812 C 928.519531 1162.84375 895.265625 1142.957031 859.195312 1133.035156 C 863.527344 1128.351562 867.789062 1123.292969 871.953125 1117.871094 Z M 871.953125 1117.90625 " fill-opacity="1" fill-rule="nonzero"/><path fill="#ff914d" d="M 885.507812 478.160156 L 930.613281 421.09375 C 926.355469 405.652344 920.929688 391.0625 914.320312 377.433594 L 874.992188 427.890625 C 880.121094 443.351562 883.636719 460.164062 885.488281 478.179688 Z M 885.507812 478.160156 " fill-opacity="1" fill-rule="nonzero"/><path fill="#ff914d" d="M 917.226562 1000.625 C 918.652344 988.089844 919.316406 975.1875 919.09375 961.964844 C 918.449219 923.117188 909.078125 886.53125 892.988281 854.425781 L 851.9375 898.734375 C 859.585938 918.601562 863.972656 940.28125 864.363281 963.019531 C 864.585938 976.574219 863.734375 989.074219 862.046875 1000.609375 L 917.242188 1000.609375 Z M 917.226562 1000.625 " fill-opacity="1" fill-rule="nonzero"/><g clip-path="url(#f0e9f49e85)"><path fill="#ff914d" d="M 1001.695312 1460.378906 L 938.648438 1460.378906 C 919.910156 1489.523438 892.988281 1512.539062 860.511719 1525.203125 C 834.386719 1502.613281 803.296875 1487.894531 767.800781 1481.542969 C 762.265625 1425.902344 739.082031 1374.574219 701.3125 1335.246094 C 658.6875 1290.863281 602.601562 1267.144531 543.371094 1268.199219 C 531.277344 1268.441406 517.800781 1270.109375 503.875 1273.460938 C 519.003906 1233.058594 528.296875 1189.265625 527.6875 1152.753906 C 526.925781 1106.964844 514.558594 1063.453125 491.800781 1025.585938 C 510.726562 994.589844 521.648438 958.613281 523.335938 921.398438 C 583.160156 813.335938 630.800781 802.875 669.296875 794.394531 C 678.925781 792.265625 688.921875 791.0625 698.996094 790.878906 C 701.921875 790.839844 704.699219 790.859375 707.292969 790.953125 L 707.792969 790.953125 C 710.734375 791.0625 713.679688 791.285156 716.585938 791.5625 C 716.789062 791.582031 717.011719 791.601562 717.234375 791.617188 C 762.0625 796.136719 801.1875 819.964844 827.792969 855.164062 L 866.695312 813.1875 C 852.179688 794.96875 835.125 779.15625 816.015625 766.472656 C 841.144531 751.457031 864.046875 730.050781 883.507812 702.816406 C 895.117188 686.59375 905.078125 668.875 913.355469 649.972656 L 850.992188 649.972656 C 847.605469 655.75 844.011719 661.339844 840.179688 666.671875 C 810.3125 708.40625 770.617188 731.832031 728.398438 732.664062 C 725.84375 732.71875 723.363281 732.683594 721.03125 732.589844 C 720.402344 732.535156 719.789062 732.515625 719.179688 732.515625 C 715.902344 732.238281 712.585938 732.015625 709.308594 731.886719 L 708.792969 731.886719 C 705.367188 731.757812 701.738281 731.71875 698.015625 731.8125 C 684.554688 732.070312 671.183594 733.664062 658.316406 736.515625 C 612.472656 746.605469 563.773438 763.398438 510.746094 836.425781 C 509.929688 834.132812 509.078125 831.816406 508.171875 829.558594 C 486.878906 775.769531 444.789062 733.792969 393.964844 714.738281 C 389.742188 700.816406 387.484375 686.261719 387.222656 671.339844 C 386.558594 631.621094 400.277344 593.996094 425.832031 565.390625 C 451.382812 536.78125 485.730469 520.65625 522.539062 519.933594 C 529.128906 519.804688 535.742188 520.175781 542.238281 521.0625 C 579.625 526.0625 613.898438 547.875 636.300781 580.851562 C 645.246094 594.015625 662.371094 596.867188 674.574219 587.21875 C 686.757812 577.59375 689.386719 559.09375 680.460938 545.929688 C 657.019531 511.398438 624.230469 485.660156 587.289062 471.976562 C 584.195312 431.261719 599.878906 399.820312 614.65625 379.765625 C 641.484375 343.363281 683.574219 319.351562 721.882812 318.589844 C 768.0625 317.644531 808.035156 333.273438 837.367188 363.675781 C 842.585938 369.082031 847.382812 374.972656 851.808594 381.210938 L 887.710938 335.164062 C 883.765625 330.253906 879.636719 325.535156 875.285156 321.015625 C 835.847656 280.113281 780.964844 258.246094 720.902344 259.414062 C 666.90625 260.46875 608.378906 293.242188 571.792969 342.902344 C 545.941406 377.988281 532.425781 418.835938 532.203125 460.90625 C 528.667969 460.773438 525.113281 460.699219 521.558594 460.773438 C 470.140625 461.773438 422.144531 484.347656 386.429688 524.304688 C 350.710938 564.277344 331.566406 616.847656 332.492188 672.355469 C 332.65625 682.835938 333.546875 693.1875 335.140625 703.371094 C 332.621094 703.316406 330.101562 703.296875 327.585938 703.351562 C 276.148438 704.335938 228.152344 726.921875 192.4375 766.882812 C 156.738281 806.855469 137.574219 859.441406 138.5 914.953125 C 139.019531 945.339844 145.441406 974.480469 157.589844 1001.550781 C 157.960938 1002.402344 158.347656 1003.199219 158.738281 1004.035156 C 156.683594 1004.144531 154.609375 1004.292969 152.535156 1004.476562 C 46.550781 1014.402344 0.628906 1109.964844 2.148438 1200.230469 C 3 1252.386719 22.421875 1301.308594 56.808594 1337.933594 C 71.972656 1354.113281 89.339844 1367.09375 108.113281 1376.59375 C 61.453125 1417.511719 32.457031 1480.617188 31.441406 1550.921875 C 30.125 1640 62.140625 1708.898438 119.28125 1739.914062 C 126.742188 1743.96875 134.460938 1747.246094 142.332031 1749.726562 C 142.480469 1784.90625 152.625 1843.308594 209.933594 1886.910156 C 241.375 1910.835938 271.722656 1917.945312 296.664062 1917.945312 C 307.457031 1917.945312 317.253906 1916.628906 325.695312 1914.742188 C 331.15625 1913.519531 336.269531 1912.019531 340.988281 1910.410156 C 354.691406 1964.882812 381.539062 2012.617188 417.628906 2044.519531 C 451.382812 2074.332031 491.785156 2089.660156 535.90625 2089.660156 C 546.164062 2089.660156 556.625 2088.828125 567.238281 2087.179688 C 578.847656 2085.347656 590.046875 2082.238281 600.789062 2078.050781 C 617.953125 2136.507812 657.648438 2168.910156 664.910156 2174.445312 C 671.554688 2179.945312 706.441406 2206.792969 755.136719 2206.792969 C 778.355469 2206.792969 804.722656 2200.683594 832.679688 2183.242188 C 901.800781 2140.136719 905.191406 2078.273438 901.078125 2045.207031 C 900.414062 2039.835938 899.449219 2034.742188 898.394531 2029.929688 L 889.230469 2029.929688 L 850.492188 1949.273438 C 826.921875 1981.917969 791.796875 2006.5625 739.378906 2007.582031 C 724.269531 2007.875 712.234375 2021.355469 712.511719 2037.667969 C 712.773438 2053.796875 724.972656 2066.683594 739.878906 2066.683594 L 740.378906 2066.683594 C 778.78125 2065.941406 813.371094 2055.316406 842.996094 2035.519531 C 846.585938 2047.335938 849.253906 2063.035156 846.160156 2078.921875 C 842.070312 2099.84375 828.328125 2117.714844 805.316406 2132.082031 C 748.101562 2167.761719 701.550781 2130.285156 698.421875 2127.675781 C 697.605469 2126.933594 697.460938 2126.804688 696.515625 2126.15625 C 694.886719 2124.953125 659.796875 2098.402344 650.132812 2048.335938 C 688.273438 2015.5625 712.550781 1966.550781 711.957031 1914.410156 C 711.511719 1877.320312 693.347656 1827.566406 653.722656 1799.980469 C 626.226562 1780.835938 578.199219 1765.226562 505.429688 1799.574219 C 491.578125 1806.109375 485.265625 1823.53125 491.320312 1838.492188 C 497.375 1853.472656 513.523438 1860.285156 527.371094 1853.75 C 555.238281 1840.585938 594.660156 1829.199219 624.042969 1849.675781 C 648.003906 1866.359375 657 1897.984375 657.207031 1915.1875 C 657.871094 1970.140625 614.894531 2020.003906 559.386719 2028.707031 C 518.152344 2035.167969 482.136719 2025.117188 452.363281 1998.804688 C 414.015625 1964.9375 389.1875 1906.148438 385.945312 1841.546875 C 382.632812 1775.667969 396.296875 1715.34375 426.570312 1662.257812 C 449.253906 1622.484375 473.398438 1601.671875 474.027344 1601.136719 C 474.65625 1600.601562 475.230469 1600.042969 475.804688 1599.488281 C 503.429688 1607.359375 532.277344 1605.042969 556.535156 1591.824219 C 588.734375 1574.289062 607.359375 1540.21875 607.636719 1498.371094 C 607.75 1482.058594 595.585938 1468.730469 580.457031 1468.597656 L 580.253906 1468.597656 C 565.238281 1468.597656 552.980469 1481.707031 552.867188 1497.929688 C 552.738281 1517.683594 545.664062 1531.515625 531.851562 1539.050781 C 512.613281 1549.53125 484.46875 1545.273438 463.378906 1528.71875 C 446.273438 1515.296875 419.089844 1482.339844 429.125 1412.382812 C 431.292969 1397.238281 437.125 1384.386719 445.214844 1373.628906 C 448.679688 1370.113281 452.140625 1366.28125 455.511719 1362.152344 C 480.785156 1338.191406 518.261719 1327.839844 544.351562 1327.339844 C 588.957031 1326.472656 631.191406 1344.394531 663.296875 1377.835938 C 695.386719 1411.273438 713.511719 1456.175781 714.308594 1504.316406 C 715.328125 1564.734375 688.40625 1621.394531 642.320312 1655.871094 C 629.894531 1665.164062 626.800781 1683.570312 635.410156 1696.992188 C 640.726562 1705.289062 649.242188 1709.714844 657.925781 1709.714844 C 663.296875 1709.714844 668.742188 1707.992188 673.5 1704.457031 C 724.808594 1666.070312 758.191406 1606.96875 766.839844 1541.550781 C 817.5 1553.382812 854.269531 1589.101562 876.359375 1647.925781 C 882.710938 1664.867188 887.246094 1682.03125 890.488281 1698.402344 L 946.332031 1698.402344 C 942.425781 1675.386719 936.390625 1650.480469 927.113281 1625.746094 C 919.558594 1605.617188 910.503906 1587.472656 900.0625 1571.289062 C 945.351562 1547.625 980.828125 1508.148438 1001.65625 1460.433594 Z M 331.25 1844.714844 C 331.363281 1846.898438 331.507812 1849.101562 331.65625 1851.289062 C 313.550781 1859.285156 279.183594 1867.265625 241.484375 1838.605469 C 206.324219 1811.867188 198.289062 1777.019531 197.175781 1754.597656 C 220.0625 1751.578125 242.097656 1742.265625 260.703125 1726.878906 C 303.402344 1691.53125 320.457031 1632.503906 307.53125 1564.957031 C 304.457031 1548.976562 289.976562 1538.683594 275.164062 1541.996094 C 260.371094 1545.292969 250.835938 1560.9375 253.910156 1576.917969 C 262.554688 1622.078125 253.148438 1658.664062 227.394531 1679.976562 C 204.121094 1699.253906 171.363281 1702.046875 143.90625 1687.144531 C 106.28125 1666.703125 85.246094 1617.375 86.210938 1551.847656 C 87.300781 1477.355469 130.113281 1413.921875 192.734375 1393.980469 C 205.472656 1389.925781 218.765625 1387.738281 232.246094 1387.460938 L 233.449219 1387.460938 C 234.300781 1387.445312 235.171875 1387.425781 236.003906 1387.445312 C 236.542969 1387.460938 237.058594 1387.460938 237.597656 1387.460938 L 239.558594 1387.460938 C 262.1875 1387.648438 322.289062 1388.089844 367.191406 1443.324219 C 368.78125 1445.269531 370.542969 1446.917969 372.46875 1448.285156 C 374.113281 1498.761719 392 1541.625 424.015625 1570.4375 C 391.574219 1605.433594 323.824219 1696.917969 331.269531 1844.734375 Z M 417.3125 1319.488281 C 401.757812 1334.636719 389 1353.542969 381.300781 1376.628906 C 325.382812 1329.027344 262.703125 1328.527344 239.929688 1328.359375 L 237.335938 1328.359375 C 237.335938 1328.359375 237.207031 1328.320312 237.152344 1328.320312 C 235.746094 1328.320312 234.339844 1328.320312 232.929688 1328.339844 C 232.355469 1328.339844 231.839844 1328.339844 231.207031 1328.359375 C 214.359375 1328.675781 197.714844 1331.246094 181.640625 1335.949219 C 113.761719 1333.488281 58.121094 1272.921875 56.878906 1199.171875 C 55.917969 1140.960938 81.636719 1070.433594 157.273438 1063.339844 C 174.550781 1061.730469 190.027344 1063.15625 203.601562 1066.820312 C 208.414062 1070.691406 214.101562 1072.617188 219.765625 1072.636719 C 246.390625 1084.855469 262.816406 1106.761719 266.796875 1129.664062 C 272.019531 1159.625 255.6875 1183.621094 223.136719 1193.914062 C 208.621094 1198.488281 200.304688 1214.894531 204.546875 1230.558594 C 208.804688 1246.222656 224.007812 1255.222656 238.523438 1250.628906 C 307.308594 1228.929688 329.324219 1168.769531 320.640625 1118.757812 C 313.03125 1074.988281 281.628906 1033.066406 231.597656 1014.125 C 231.300781 1013.792969 230.988281 1013.457031 230.707031 1013.125 C 230.617188 1013.015625 230.503906 1012.882812 230.394531 1012.773438 C 229.523438 1011.773438 228.652344 1010.734375 227.765625 1009.664062 C 219.394531 999.441406 212.359375 988.074219 206.898438 975.816406 C 198.214844 956.464844 193.601562 935.617188 193.25 913.878906 C 192.601562 874.144531 206.304688 836.484375 231.875 807.894531 C 257.425781 779.285156 291.757812 763.160156 328.585938 762.417969 C 341.304688 762.179688 353.949219 763.789062 366.152344 767.25 C 406.945312 778.824219 441.21875 810.765625 457.863281 852.757812 C 464.863281 870.347656 468.546875 889.105469 468.859375 908.507812 C 469.269531 932.710938 464.195312 956.449219 454.308594 977.742188 C 429.664062 953.464844 400.40625 935.433594 368.117188 924.894531 C 353.636719 920.175781 338.359375 929.007812 333.992188 944.632812 C 329.601562 960.261719 337.804688 976.742188 352.285156 981.480469 C 385.667969 992.367188 414.792969 1013.828125 436.53125 1043.582031 C 436.570312 1043.621094 436.585938 1043.675781 436.625 1043.714844 C 459.714844 1075.339844 472.285156 1113.40625 472.953125 1153.789062 C 473.804688 1204.414062 447.585938 1280.125 417.3125 1319.472656 Z M 417.3125 1319.488281 " fill-opacity="1" fill-rule="nonzero"/></g><path fill="#ff914d" d="M 883.675781 554.726562 C 881.304688 570.613281 877.710938 586 872.933594 600.699219 L 910.207031 600.699219 L 938.074219 561.945312 C 940.851562 542.542969 942.128906 522.617188 941.796875 502.417969 C 941.683594 496.140625 941.40625 489.957031 941 483.847656 L 884.96875 554.726562 Z M 883.675781 554.726562 " fill-opacity="1" fill-rule="nonzero"/><path fill="#ff914d" d="M 935.871094 1747.617188 L 897.136719 1747.617188 C 899.078125 1773.742188 898.136719 1792.628906 897.894531 1796.5 C 896.617188 1817.21875 892.191406 1857.84375 877.25 1897.984375 L 908.484375 1963.050781 C 939.683594 1908.261719 949.738281 1845.324219 952.515625 1800.441406 C 952.792969 1795.90625 953.277344 1785.648438 953.054688 1771.445312 Z M 935.871094 1747.617188 " fill-opacity="1" fill-rule="nonzero"/><g fill="#1f628e" fill-opacity="1"><g transform="translate(1926.212278, 1305.492744)"><g><path d="M 150.15625 -51.15625 C 158.78125 -51.15625 167.15625 -52.457031 175.28125 -55.0625 C 183.40625 -57.675781 189.375 -60.1875 193.1875 -62.59375 L 198.90625 -66.5 L 222.984375 -18.359375 C 222.179688 -17.753906 221.078125 -16.945312 219.671875 -15.9375 C 218.265625 -14.9375 215.003906 -13.082031 209.890625 -10.375 C 204.773438 -7.664062 199.304688 -5.304688 193.484375 -3.296875 C 187.671875 -1.296875 180.050781 0.503906 170.625 2.109375 C 161.195312 3.710938 151.46875 4.515625 141.4375 4.515625 C 118.363281 4.515625 96.492188 -1.148438 75.828125 -12.484375 C 55.171875 -23.816406 38.519531 -39.414062 25.875 -59.28125 C 13.238281 -79.144531 6.921875 -100.609375 6.921875 -123.671875 C 6.921875 -141.128906 10.628906 -157.878906 18.046875 -173.921875 C 25.472656 -189.972656 35.351562 -203.71875 47.6875 -215.15625 C 60.03125 -226.59375 74.425781 -235.722656 90.875 -242.546875 C 107.320312 -249.367188 124.175781 -252.78125 141.4375 -252.78125 C 157.476562 -252.78125 172.269531 -250.875 185.8125 -247.0625 C 199.351562 -243.25 208.9375 -239.4375 214.5625 -235.625 L 222.984375 -229.90625 L 198.90625 -181.75 C 197.5 -182.957031 195.390625 -184.410156 192.578125 -186.109375 C 189.773438 -187.816406 184.160156 -190.078125 175.734375 -192.890625 C 167.304688 -195.703125 158.78125 -197.109375 150.15625 -197.109375 C 136.519531 -197.109375 124.285156 -194.898438 113.453125 -190.484375 C 102.617188 -186.066406 94.039062 -180.25 87.71875 -173.03125 C 81.394531 -165.8125 76.578125 -158.035156 73.265625 -149.703125 C 69.960938 -141.378906 68.3125 -132.90625 68.3125 -124.28125 C 68.3125 -105.425781 75.378906 -88.523438 89.515625 -73.578125 C 103.660156 -58.628906 123.875 -51.15625 150.15625 -51.15625 Z M 150.15625 -51.15625 "/></g></g></g><g fill="#1f628e" fill-opacity="1"><g transform="translate(2152.736543, 1305.492744)"><g><path d="M 208.84375 -248.265625 L 208.84375 -88.171875 C 208.84375 -57.679688 200.613281 -34.609375 184.15625 -18.953125 C 167.707031 -3.304688 143.632812 4.515625 111.9375 4.515625 C 80.238281 4.515625 56.164062 -3.304688 39.71875 -18.953125 C 23.269531 -34.609375 15.046875 -57.679688 15.046875 -88.171875 L 15.046875 -248.265625 L 71.625 -248.265625 L 71.625 -104.71875 C 71.625 -84.65625 74.78125 -70.710938 81.09375 -62.890625 C 87.414062 -55.066406 97.695312 -51.15625 111.9375 -51.15625 C 126.1875 -51.15625 136.46875 -55.066406 142.78125 -62.890625 C 149.101562 -70.710938 152.265625 -84.65625 152.265625 -104.71875 L 152.265625 -248.265625 Z M 208.84375 -248.265625 "/></g></g></g><g fill="#1f628e" fill-opacity="1"><g transform="translate(2376.553454, 1305.492744)"><g><path d="M 150.15625 -51.15625 C 158.78125 -51.15625 167.15625 -52.457031 175.28125 -55.0625 C 183.40625 -57.675781 189.375 -60.1875 193.1875 -62.59375 L 198.90625 -66.5 L 222.984375 -18.359375 C 222.179688 -17.753906 221.078125 -16.945312 219.671875 -15.9375 C 218.265625 -14.9375 215.003906 -13.082031 209.890625 -10.375 C 204.773438 -7.664062 199.304688 -5.304688 193.484375 -3.296875 C 187.671875 -1.296875 180.050781 0.503906 170.625 2.109375 C 161.195312 3.710938 151.46875 4.515625 141.4375 4.515625 C 118.363281 4.515625 96.492188 -1.148438 75.828125 -12.484375 C 55.171875 -23.816406 38.519531 -39.414062 25.875 -59.28125 C 13.238281 -79.144531 6.921875 -100.609375 6.921875 -123.671875 C 6.921875 -141.128906 10.628906 -157.878906 18.046875 -173.921875 C 25.472656 -189.972656 35.351562 -203.71875 47.6875 -215.15625 C 60.03125 -226.59375 74.425781 -235.722656 90.875 -242.546875 C 107.320312 -249.367188 124.175781 -252.78125 141.4375 -252.78125 C 157.476562 -252.78125 172.269531 -250.875 185.8125 -247.0625 C 199.351562 -243.25 208.9375 -239.4375 214.5625 -235.625 L 222.984375 -229.90625 L 198.90625 -181.75 C 197.5 -182.957031 195.390625 -184.410156 192.578125 -186.109375 C 189.773438 -187.816406 184.160156 -190.078125 175.734375 -192.890625 C 167.304688 -195.703125 158.78125 -197.109375 150.15625 -197.109375 C 136.519531 -197.109375 124.285156 -194.898438 113.453125 -190.484375 C 102.617188 -186.066406 94.039062 -180.25 87.71875 -173.03125 C 81.394531 -165.8125 76.578125 -158.035156 73.265625 -149.703125 C 69.960938 -141.378906 68.3125 -132.90625 68.3125 -124.28125 C 68.3125 -105.425781 75.378906 -88.523438 89.515625 -73.578125 C 103.660156 -58.628906 123.875 -51.15625 150.15625 -51.15625 Z M 150.15625 -51.15625 "/></g></g></g><g fill="#1f628e" fill-opacity="1"><g transform="translate(2603.077719, 1305.492744)"><g><path d="M 160.09375 -248.265625 L 160.09375 -198.609375 L 74.625 -198.609375 L 74.625 -149.25 L 156.484375 -149.25 L 156.484375 -99.609375 L 74.625 -99.609375 L 74.625 -49.65625 L 160.09375 -49.65625 L 160.09375 0 L 18.0625 0 L 18.0625 -248.265625 Z M 160.09375 -248.265625 "/></g></g></g><g fill="#1f628e" fill-opacity="1"><g transform="translate(2777.558584, 1305.492744)"><g><path d="M 74.625 -248.265625 L 74.625 0 L 18.0625 0 L 18.0625 -248.265625 Z M 74.625 -248.265625 "/></g></g></g><g fill="#1f628e" fill-opacity="1"><g transform="translate(2870.213978, 1305.492744)"><g><path d="M 18.0625 0 L 18.0625 -154.375 L 71.3125 -154.375 L 71.3125 -138.125 L 71.921875 -138.125 C 85.765625 -151.96875 100.507812 -158.890625 116.15625 -158.890625 C 123.78125 -158.890625 131.351562 -157.882812 138.875 -155.875 C 146.394531 -153.875 153.613281 -150.765625 160.53125 -146.546875 C 167.457031 -142.335938 173.078125 -136.367188 177.390625 -128.640625 C 181.703125 -120.921875 183.859375 -111.945312 183.859375 -101.71875 L 183.859375 0 L 130.59375 0 L 130.59375 -87.265625 C 130.59375 -95.285156 128.035156 -102.304688 122.921875 -108.328125 C 117.804688 -114.347656 111.140625 -117.359375 102.921875 -117.359375 C 94.890625 -117.359375 87.613281 -114.25 81.09375 -108.03125 C 74.570312 -101.8125 71.3125 -94.890625 71.3125 -87.265625 L 71.3125 0 Z M 18.0625 0 "/></g></g></g><g fill="#1f628e" fill-opacity="1"><g transform="translate(3069.062043, 1305.492744)"><g><path d="M 27.078125 -154.375 L 27.078125 -187.171875 C 27.285156 -210.242188 32.703125 -228.703125 43.328125 -242.546875 C 53.960938 -256.390625 68.707031 -263.3125 87.5625 -263.3125 C 95.59375 -263.3125 103.269531 -262.15625 110.59375 -259.84375 C 117.914062 -257.539062 123.179688 -255.1875 126.390625 -252.78125 L 131.5 -249.46875 L 112.84375 -211.84375 C 108.03125 -214.65625 102.710938 -216.0625 96.890625 -216.0625 C 90.273438 -216.0625 85.863281 -213.800781 83.65625 -209.28125 C 81.445312 -204.769531 80.34375 -196.898438 80.34375 -185.671875 L 80.34375 -154.375 L 115.859375 -154.375 L 115.859375 -113.75 L 80.34375 -113.75 L 80.34375 0 L 27.078125 0 L 27.078125 -113.75 L 4.8125 -113.75 L 4.8125 -154.375 Z M 27.078125 -154.375 "/></g></g></g><g fill="#1f628e" fill-opacity="1"><g transform="translate(3181.872892, 1305.492744)"><g><path d="M 32.640625 -18.34375 C 15.492188 -33.59375 6.921875 -53.15625 6.921875 -77.03125 C 6.921875 -100.90625 15.847656 -120.515625 33.703125 -135.859375 C 51.554688 -151.210938 73.625 -158.890625 99.90625 -158.890625 C 125.78125 -158.890625 147.59375 -151.164062 165.34375 -135.71875 C 183.101562 -120.269531 191.984375 -100.707031 191.984375 -77.03125 C 191.984375 -53.363281 183.304688 -33.851562 165.953125 -18.5 C 148.597656 -3.15625 126.582031 4.515625 99.90625 4.515625 C 72.21875 4.515625 49.796875 -3.101562 32.640625 -18.34375 Z M 73.875 -103.21875 C 66.957031 -96.394531 63.5 -87.664062 63.5 -77.03125 C 63.5 -66.40625 66.804688 -57.726562 73.421875 -51 C 80.046875 -44.28125 88.773438 -40.921875 99.609375 -40.921875 C 110.035156 -40.921875 118.609375 -44.332031 125.328125 -51.15625 C 132.054688 -57.976562 135.421875 -66.601562 135.421875 -77.03125 C 135.421875 -87.664062 131.957031 -96.394531 125.03125 -103.21875 C 118.113281 -110.039062 109.640625 -113.453125 99.609375 -113.453125 C 89.378906 -113.453125 80.800781 -110.039062 73.875 -103.21875 Z M 73.875 -103.21875 "/></g></g></g><g fill="#1f628e" fill-opacity="1"><g transform="translate(3380.720957, 1305.492744)"><g><path d="M 18.0625 0 L 18.0625 -154.375 L 71.3125 -154.375 L 71.3125 -132.109375 L 71.921875 -132.109375 C 72.316406 -132.910156 72.96875 -133.910156 73.875 -135.109375 C 74.78125 -136.316406 76.738281 -138.425781 79.75 -141.4375 C 82.757812 -144.445312 85.96875 -147.15625 89.375 -149.5625 C 92.78125 -151.96875 97.191406 -154.125 102.609375 -156.03125 C 108.023438 -157.9375 113.546875 -158.890625 119.171875 -158.890625 C 124.984375 -158.890625 130.695312 -158.085938 136.3125 -156.484375 C 141.9375 -154.878906 146.050781 -153.273438 148.65625 -151.671875 L 152.875 -149.25 L 130.59375 -104.125 C 123.976562 -109.738281 114.753906 -112.546875 102.921875 -112.546875 C 96.492188 -112.546875 90.972656 -111.140625 86.359375 -108.328125 C 81.742188 -105.523438 78.484375 -102.113281 76.578125 -98.09375 C 74.671875 -94.082031 73.316406 -90.671875 72.515625 -87.859375 C 71.710938 -85.054688 71.3125 -82.851562 71.3125 -81.25 L 71.3125 0 Z M 18.0625 0 "/></g></g></g><g fill="#1f628e" fill-opacity="1"><g transform="translate(3530.533884, 1305.492744)"><g><path d="M 18.0625 0 L 18.0625 -154.375 L 71.3125 -154.375 L 71.3125 -138.125 L 71.921875 -138.125 C 85.765625 -151.96875 100.507812 -158.890625 116.15625 -158.890625 C 127.382812 -158.890625 137.914062 -156.582031 147.75 -151.96875 C 157.582031 -147.351562 165.003906 -140.226562 170.015625 -130.59375 C 185.671875 -149.457031 202.722656 -158.890625 221.171875 -158.890625 C 237.628906 -158.890625 251.773438 -154.273438 263.609375 -145.046875 C 275.441406 -135.816406 281.359375 -121.375 281.359375 -101.71875 L 281.359375 0 L 228.09375 0 L 228.09375 -87.265625 C 228.09375 -95.492188 225.835938 -102.363281 221.328125 -107.875 C 216.816406 -113.394531 210.046875 -116.15625 201.015625 -116.15625 C 193.191406 -116.15625 187.222656 -113.796875 183.109375 -109.078125 C 178.992188 -104.367188 176.738281 -98.703125 176.34375 -92.078125 L 176.34375 0 L 123.078125 0 L 123.078125 -87.265625 C 123.078125 -95.492188 120.816406 -102.363281 116.296875 -107.875 C 111.785156 -113.394531 105.019531 -116.15625 96 -116.15625 C 87.769531 -116.15625 81.597656 -113.597656 77.484375 -108.484375 C 73.367188 -103.367188 71.3125 -97.300781 71.3125 -90.28125 L 71.3125 0 Z M 18.0625 0 "/></g></g></g><g fill="#1f628e" fill-opacity="1"><g transform="translate(3826.850561, 1305.492744)"><g><path d="M 28.578125 -19.109375 C 14.140625 -34.859375 6.921875 -54.164062 6.921875 -77.03125 C 6.921875 -99.90625 14.140625 -119.265625 28.578125 -135.109375 C 43.023438 -150.960938 61.382812 -158.890625 83.65625 -158.890625 C 104.113281 -158.890625 120.96875 -152.46875 134.21875 -139.625 L 134.21875 -154.375 L 187.46875 -154.375 L 187.46875 0 L 134.8125 0 L 134.8125 -17.453125 L 134.21875 -17.453125 C 120.96875 -2.804688 104.113281 4.515625 83.65625 4.515625 C 61.382812 4.515625 43.023438 -3.359375 28.578125 -19.109375 Z M 73.875 -103.21875 C 66.957031 -96.394531 63.5 -87.664062 63.5 -77.03125 C 63.5 -66.40625 66.804688 -57.726562 73.421875 -51 C 80.046875 -44.28125 88.773438 -40.921875 99.609375 -40.921875 C 110.035156 -40.921875 118.609375 -44.332031 125.328125 -51.15625 C 132.054688 -57.976562 135.421875 -66.601562 135.421875 -77.03125 C 135.421875 -87.664062 131.957031 -96.394531 125.03125 -103.21875 C 118.113281 -110.039062 109.640625 -113.453125 99.609375 -113.453125 C 89.378906 -113.453125 80.800781 -110.039062 73.875 -103.21875 Z M 73.875 -103.21875 "/></g></g></g><g fill="#1f628e" fill-opacity="1"><g transform="translate(4032.31681, 1305.492744)"><g><path d="M 27.078125 -154.375 L 27.078125 -211.84375 L 80.34375 -211.84375 L 80.34375 -154.375 L 112.84375 -154.375 L 112.84375 -113.75 L 80.34375 -113.75 L 80.34375 -64.703125 C 80.34375 -50.453125 84.359375 -43.328125 92.390625 -43.328125 C 94.390625 -43.328125 96.492188 -43.726562 98.703125 -44.53125 C 100.910156 -45.332031 102.613281 -46.132812 103.8125 -46.9375 L 105.625 -48.140625 L 118.859375 -5.109375 C 107.429688 1.304688 94.394531 4.515625 79.75 4.515625 C 69.71875 4.515625 61.085938 2.757812 53.859375 -0.75 C 46.640625 -4.257812 41.171875 -8.972656 37.453125 -14.890625 C 33.742188 -20.804688 31.085938 -27.023438 29.484375 -33.546875 C 27.878906 -40.066406 27.078125 -47.039062 27.078125 -54.46875 L 27.078125 -113.75 L 4.8125 -113.75 L 4.8125 -154.375 Z M 27.078125 -154.375 "/></g></g></g><g fill="#1f628e" fill-opacity="1"><g transform="translate(4151.144359, 1305.492744)"><g><path d="M 23.171875 -240.4375 C 29.390625 -246.65625 36.8125 -249.765625 45.4375 -249.765625 C 54.0625 -249.765625 61.484375 -246.65625 67.703125 -240.4375 C 73.921875 -234.21875 77.03125 -226.796875 77.03125 -218.171875 C 77.03125 -209.546875 73.921875 -202.125 67.703125 -195.90625 C 61.484375 -189.6875 54.0625 -186.578125 45.4375 -186.578125 C 36.8125 -186.578125 29.390625 -189.6875 23.171875 -195.90625 C 16.953125 -202.125 13.84375 -209.546875 13.84375 -218.171875 C 13.84375 -226.796875 16.953125 -234.21875 23.171875 -240.4375 Z M 18.0625 -154.375 L 18.0625 0 L 71.3125 0 L 71.3125 -154.375 Z M 18.0625 -154.375 "/></g></g></g><g fill="#1f628e" fill-opacity="1"><g transform="translate(4241.994794, 1305.492744)"><g><path d="M 150.15625 -51.15625 C 158.78125 -51.15625 167.15625 -52.457031 175.28125 -55.0625 C 183.40625 -57.675781 189.375 -60.1875 193.1875 -62.59375 L 198.90625 -66.5 L 222.984375 -18.359375 C 222.179688 -17.753906 221.078125 -16.945312 219.671875 -15.9375 C 218.265625 -14.9375 215.003906 -13.082031 209.890625 -10.375 C 204.773438 -7.664062 199.304688 -5.304688 193.484375 -3.296875 C 187.671875 -1.296875 180.050781 0.503906 170.625 2.109375 C 161.195312 3.710938 151.46875 4.515625 141.4375 4.515625 C 118.363281 4.515625 96.492188 -1.148438 75.828125 -12.484375 C 55.171875 -23.816406 38.519531 -39.414062 25.875 -59.28125 C 13.238281 -79.144531 6.921875 -100.609375 6.921875 -123.671875 C 6.921875 -141.128906 10.628906 -157.878906 18.046875 -173.921875 C 25.472656 -189.972656 35.351562 -203.71875 47.6875 -215.15625 C 60.03125 -226.59375 74.425781 -235.722656 90.875 -242.546875 C 107.320312 -249.367188 124.175781 -252.78125 141.4375 -252.78125 C 157.476562 -252.78125 172.269531 -250.875 185.8125 -247.0625 C 199.351562 -243.25 208.9375 -239.4375 214.5625 -235.625 L 222.984375 -229.90625 L 198.90625 -181.75 C 197.5 -182.957031 195.390625 -184.410156 192.578125 -186.109375 C 189.773438 -187.816406 184.160156 -190.078125 175.734375 -192.890625 C 167.304688 -195.703125 158.78125 -197.109375 150.15625 -197.109375 C 136.519531 -197.109375 124.285156 -194.898438 113.453125 -190.484375 C 102.617188 -186.066406 94.039062 -180.25 87.71875 -173.03125 C 81.394531 -165.8125 76.578125 -158.035156 73.265625 -149.703125 C 69.960938 -141.378906 68.3125 -132.90625 68.3125 -124.28125 C 68.3125 -105.425781 75.378906 -88.523438 89.515625 -73.578125 C 103.660156 -58.628906 123.875 -51.15625 150.15625 -51.15625 Z M 150.15625 -51.15625 "/></g></g></g><g fill="#1f628e" fill-opacity="1"><g transform="translate(4468.519059, 1305.492744)"><g><path d="M 28.578125 -19.109375 C 14.140625 -34.859375 6.921875 -54.164062 6.921875 -77.03125 C 6.921875 -99.90625 14.140625 -119.265625 28.578125 -135.109375 C 43.023438 -150.960938 61.382812 -158.890625 83.65625 -158.890625 C 104.113281 -158.890625 120.96875 -152.46875 134.21875 -139.625 L 134.21875 -154.375 L 187.46875 -154.375 L 187.46875 0 L 134.8125 0 L 134.8125 -17.453125 L 134.21875 -17.453125 C 120.96875 -2.804688 104.113281 4.515625 83.65625 4.515625 C 61.382812 4.515625 43.023438 -3.359375 28.578125 -19.109375 Z M 73.875 -103.21875 C 66.957031 -96.394531 63.5 -87.664062 63.5 -77.03125 C 63.5 -66.40625 66.804688 -57.726562 73.421875 -51 C 80.046875 -44.28125 88.773438 -40.921875 99.609375 -40.921875 C 110.035156 -40.921875 118.609375 -44.332031 125.328125 -51.15625 C 132.054688 -57.976562 135.421875 -66.601562 135.421875 -77.03125 C 135.421875 -87.664062 131.957031 -96.394531 125.03125 -103.21875 C 118.113281 -110.039062 109.640625 -113.453125 99.609375 -113.453125 C 89.378906 -113.453125 80.800781 -110.039062 73.875 -103.21875 Z M 73.875 -103.21875 "/></g></g></g><g fill="#1f628e" fill-opacity="1"><g transform="translate(4673.985308, 1305.492744)"><g><path d="M 18.0625 0 L 18.0625 -154.375 L 71.3125 -154.375 L 71.3125 -138.125 L 71.921875 -138.125 C 85.765625 -151.96875 100.507812 -158.890625 116.15625 -158.890625 C 127.382812 -158.890625 137.914062 -156.582031 147.75 -151.96875 C 157.582031 -147.351562 165.003906 -140.226562 170.015625 -130.59375 C 185.671875 -149.457031 202.722656 -158.890625 221.171875 -158.890625 C 237.628906 -158.890625 251.773438 -154.273438 263.609375 -145.046875 C 275.441406 -135.816406 281.359375 -121.375 281.359375 -101.71875 L 281.359375 0 L 228.09375 0 L 228.09375 -87.265625 C 228.09375 -95.492188 225.835938 -102.363281 221.328125 -107.875 C 216.816406 -113.394531 210.046875 -116.15625 201.015625 -116.15625 C 193.191406 -116.15625 187.222656 -113.796875 183.109375 -109.078125 C 178.992188 -104.367188 176.738281 -98.703125 176.34375 -92.078125 L 176.34375 0 L 123.078125 0 L 123.078125 -87.265625 C 123.078125 -95.492188 120.816406 -102.363281 116.296875 -107.875 C 111.785156 -113.394531 105.019531 -116.15625 96 -116.15625 C 87.769531 -116.15625 81.597656 -113.597656 77.484375 -108.484375 C 73.367188 -103.367188 71.3125 -97.300781 71.3125 -90.28125 L 71.3125 0 Z M 18.0625 0 "/></g></g></g><g fill="#1f628e" fill-opacity="1"><g transform="translate(4970.302152, 1305.492744)"><g><path d="M 176.9375 -135.265625 C 191.382812 -119.515625 198.609375 -100.203125 198.609375 -77.328125 C 198.609375 -54.460938 191.382812 -35.101562 176.9375 -19.25 C 162.5 -3.40625 144.144531 4.515625 121.875 4.515625 C 101.40625 4.515625 84.550781 -1.90625 71.3125 -14.75 L 71.3125 78.234375 L 18.0625 78.234375 L 18.0625 -154.375 L 70.71875 -154.375 L 70.71875 -136.921875 L 71.3125 -136.921875 C 84.550781 -151.566406 101.40625 -158.890625 121.875 -158.890625 C 144.144531 -158.890625 162.5 -151.015625 176.9375 -135.265625 Z M 131.640625 -51.15625 C 138.566406 -57.976562 142.03125 -66.703125 142.03125 -77.328125 C 142.03125 -87.960938 138.71875 -96.640625 132.09375 -103.359375 C 125.476562 -110.085938 116.753906 -113.453125 105.921875 -113.453125 C 95.492188 -113.453125 86.914062 -110.039062 80.1875 -103.21875 C 73.46875 -96.394531 70.109375 -87.769531 70.109375 -77.34375 C 70.109375 -66.707031 73.566406 -57.976562 80.484375 -51.15625 C 87.410156 -44.332031 95.890625 -40.921875 105.921875 -40.921875 C 116.148438 -40.921875 124.722656 -44.332031 131.640625 -51.15625 Z M 131.640625 -51.15625 "/></g></g></g></svg>